<svg xmlns="http://www.w3.org/2000/svg" id="canvas" viewBox="254.220 389.453 1088.564 184.695"><path d="M 298.23,403.14 C 298.19 403.73, 298.23 404.55, 298.22 406.07 C 298.21 407.59, 298.19 408.56, 298.17 410.76 C 298.16 412.95, 298.17 414.37, 298.16 417.04 C 298.16 419.71, 298.14 421.13, 298.15 424.11 C 298.15 427.08, 298.13 428.67, 298.19 431.92 C 298.25 435.16, 298.31 436.90, 298.43 440.32 C 298.56 443.75, 298.63 445.55, 298.82 449.03 C 299.01 452.50, 299.13 454.28, 299.40 457.68 C 299.67 461.09, 299.84 462.82, 300.15 466.04 C 300.46 469.27, 300.62 470.86, 300.96 473.81 C 301.29 476.75, 301.49 478.19, 301.83 480.76 C 302.17 483.33, 302.36 484.57, 302.67 486.66 C 302.97 488.74, 303.13 489.77, 303.36 491.19 C 303.60 492.62, 303.71 493.04, 303.84 493.79 C 303.96 494.55, 303.94 494.73, 303.99 494.97 C 304.04 495.20, 304.07 495.20, 304.09 494.96 C 304.11 494.72, 304.16 494.52, 304.09 493.76 C 304.03 492.99, 303.96 492.57, 303.76 491.13 C 303.57 489.70, 303.41 488.68, 303.11 486.59 C 302.82 484.51, 302.63 483.27, 302.29 480.70 C 301.94 478.13, 301.74 476.69, 301.40 473.76 C 301.05 470.82, 300.88 469.22, 300.56 466.00 C 300.24 462.78, 300.07 461.05, 299.80 457.65 C 299.53 454.25, 299.41 452.47, 299.22 449.00 C 299.03 445.54, 298.96 443.73, 298.85 440.31 C 298.73 436.89, 298.67 435.15, 298.63 431.91 C 298.59 428.67, 298.62 427.08, 298.64 424.11 C 298.65 421.13, 298.70 419.71, 298.72 417.04 C 298.73 414.37, 298.73 412.95, 298.72 410.76 C 298.71 408.56, 298.72 407.59, 298.66 406.06 C 298.60 404.54, 298.51 403.72, 298.43 403.14 C 298.34 402.55, 298.27 402.56, 298.23 403.14" style="stroke: black; fill: black;"/><path d="M 257.51,400.71 C 257.89 400.67, 258.25 400.54, 259.34 400.36 C 260.42 400.18, 261.07 400.08, 262.96 399.80 C 264.84 399.53, 266.02 399.32, 268.75 398.97 C 271.48 398.62, 273.11 398.45, 276.60 398.05 C 280.10 397.65, 282.12 397.43, 286.23 396.98 C 290.34 396.53, 292.62 396.26, 297.17 395.81 C 301.72 395.35, 304.21 395.12, 308.99 394.72 C 313.76 394.32, 316.31 394.11, 321.04 393.79 C 325.78 393.47, 328.20 393.32, 332.65 393.12 C 337.11 392.93, 339.33 392.87, 343.32 392.82 C 347.32 392.78, 349.24 392.78, 352.62 392.88 C 356.01 392.99, 357.58 393.07, 360.25 393.35 C 362.91 393.63, 364.14 393.94, 365.95 394.27 C 367.75 394.59, 368.30 394.74, 369.27 394.97 C 370.25 395.20, 370.41 395.28, 370.84 395.43 C 371.27 395.57, 371.35 395.67, 371.44 395.71 C 371.52 395.76, 371.31 395.63, 371.28 395.65 C 371.24 395.67, 371.24 395.79, 371.26 395.83 C 371.27 395.86, 371.35 395.85, 371.36 395.82 C 371.38 395.80, 371.30 395.75, 371.33 395.71 C 371.36 395.67, 371.59 395.73, 371.51 395.63 C 371.43 395.53, 371.36 395.40, 370.93 395.20 C 370.50 395.01, 370.33 394.93, 369.35 394.67 C 368.37 394.40, 367.83 394.23, 366.02 393.88 C 364.21 393.53, 362.97 393.19, 360.29 392.92 C 357.61 392.64, 356.03 392.60, 352.64 392.51 C 349.24 392.43, 347.32 392.44, 343.32 392.50 C 339.32 392.56, 337.10 392.62, 332.64 392.82 C 328.18 393.02, 325.76 393.18, 321.02 393.50 C 316.29 393.82, 313.74 394.02, 308.96 394.42 C 304.19 394.82, 301.69 395.05, 297.14 395.49 C 292.58 395.93, 290.31 396.19, 286.19 396.62 C 282.08 397.05, 280.06 397.26, 276.56 397.62 C 273.05 397.97, 271.42 398.08, 268.68 398.41 C 265.94 398.74, 264.76 398.96, 262.87 399.27 C 260.99 399.58, 260.34 399.71, 259.26 399.97 C 258.18 400.22, 257.82 400.38, 257.47 400.53 C 257.12 400.68, 257.14 400.74, 257.51 400.71" style="stroke: black; fill: black;"/><path d="M 393.52,453.93 C 393.27 453.56, 392.85 452.94, 392.11 452.24 C 391.36 451.55, 390.92 451.11, 389.78 450.45 C 388.64 449.78, 387.88 449.39, 386.41 448.92 C 384.93 448.46, 384.14 448.29, 382.39 448.11 C 380.65 447.93, 379.67 447.85, 377.67 448.00 C 375.67 448.15, 374.54 448.31, 372.39 448.85 C 370.24 449.38, 369.10 449.74, 366.93 450.67 C 364.77 451.59, 363.63 452.16, 361.59 453.48 C 359.54 454.79, 358.48 455.58, 356.70 457.24 C 354.91 458.90, 354.04 459.86, 352.66 461.79 C 351.29 463.71, 350.63 464.79, 349.82 466.87 C 349.00 468.95, 348.71 470.08, 348.57 472.19 C 348.44 474.31, 348.53 475.44, 349.14 477.44 C 349.75 479.44, 350.22 480.45, 351.60 482.20 C 352.98 483.96, 353.90 484.82, 356.02 486.21 C 358.15 487.59, 359.48 488.21, 362.23 489.11 C 364.99 490.00, 366.62 490.33, 369.80 490.68 C 372.97 491.03, 374.78 491.07, 378.12 490.86 C 381.46 490.65, 383.25 490.35, 386.49 489.62 C 389.72 488.90, 391.37 488.39, 394.28 487.23 C 397.19 486.07, 398.66 485.35, 401.04 483.81 C 403.42 482.28, 404.50 481.37, 406.19 479.54 C 407.89 477.72, 408.56 476.71, 409.51 474.70 C 410.47 472.68, 410.76 471.59, 410.96 469.48 C 411.16 467.38, 411.03 466.25, 410.53 464.19 C 410.03 462.12, 409.56 461.07, 408.47 459.16 C 407.37 457.24, 406.60 456.27, 405.05 454.64 C 403.50 453.00, 402.51 452.24, 400.70 450.97 C 398.89 449.70, 397.84 449.13, 396.00 448.29 C 394.16 447.45, 393.02 447.20, 391.51 446.78 C 389.99 446.35, 389.05 446.24, 388.43 446.15 C 387.80 446.06, 387.79 446.12, 388.39 446.32 C 388.98 446.52, 389.91 446.67, 391.39 447.16 C 392.87 447.64, 393.99 447.89, 395.79 448.73 C 397.60 449.57, 398.64 450.12, 400.42 451.37 C 402.20 452.62, 403.17 453.37, 404.69 454.97 C 406.22 456.58, 406.97 457.53, 408.05 459.39 C 409.13 461.26, 409.59 462.29, 410.08 464.30 C 410.58 466.31, 410.72 467.40, 410.53 469.44 C 410.33 471.49, 410.06 472.55, 409.13 474.51 C 408.19 476.47, 407.54 477.46, 405.87 479.24 C 404.20 481.03, 403.14 481.91, 400.79 483.43 C 398.44 484.95, 397.00 485.68, 394.12 486.83 C 391.24 487.99, 389.60 488.50, 386.40 489.22 C 383.19 489.94, 381.40 490.23, 378.09 490.43 C 374.78 490.64, 372.99 490.59, 369.85 490.23 C 366.71 489.87, 365.10 489.52, 362.39 488.64 C 359.68 487.75, 358.37 487.14, 356.29 485.80 C 354.20 484.45, 353.30 483.62, 351.96 481.92 C 350.62 480.22, 350.16 479.25, 349.57 477.31 C 348.98 475.37, 348.89 474.28, 349.02 472.22 C 349.16 470.17, 349.44 469.07, 350.25 467.04 C 351.05 465.01, 351.69 463.95, 353.05 462.07 C 354.41 460.18, 355.27 459.23, 357.03 457.60 C 358.79 455.96, 359.83 455.19, 361.85 453.89 C 363.87 452.60, 365.00 452.04, 367.13 451.13 C 369.26 450.22, 370.40 449.87, 372.51 449.34 C 374.63 448.82, 375.75 448.65, 377.71 448.51 C 379.68 448.36, 380.63 448.43, 382.34 448.61 C 384.05 448.80, 384.81 448.97, 386.25 449.42 C 387.68 449.88, 388.40 450.27, 389.52 450.90 C 390.63 451.53, 391.05 451.94, 391.81 452.58 C 392.58 453.21, 393.02 453.80, 393.36 454.07 C 393.70 454.34, 393.77 454.29, 393.52 453.93" style="stroke: black; fill: black;"/><path d="M 528.22,455.41 C 527.96 455.01, 527.57 454.33, 526.78 453.55 C 526.00 452.76, 525.49 452.24, 524.27 451.47 C 523.06 450.71, 522.29 450.22, 520.72 449.72 C 519.15 449.23, 518.32 449.12, 516.44 449.01 C 514.56 448.91, 513.49 448.94, 511.31 449.20 C 509.13 449.45, 507.93 449.64, 505.55 450.30 C 503.17 450.97, 501.86 451.41, 499.42 452.51 C 496.97 453.61, 495.68 454.32, 493.33 455.81 C 490.98 457.30, 489.74 458.15, 487.68 459.97 C 485.61 461.78, 484.59 462.81, 483.01 464.90 C 481.43 466.98, 480.71 468.15, 479.77 470.38 C 478.84 472.62, 478.50 473.83, 478.35 476.08 C 478.20 478.33, 478.32 479.54, 479.02 481.64 C 479.73 483.75, 480.30 484.82, 481.87 486.62 C 483.45 488.41, 484.52 489.24, 486.89 490.60 C 489.26 491.96, 490.72 492.58, 493.71 493.43 C 496.69 494.29, 498.46 494.59, 501.83 494.88 C 505.20 495.17, 507.09 495.14, 510.56 494.88 C 514.03 494.62, 515.82 494.34, 519.17 493.57 C 522.51 492.80, 524.26 492.25, 527.28 491.03 C 530.30 489.81, 531.80 489.03, 534.28 487.46 C 536.77 485.89, 537.91 485.00, 539.71 483.17 C 541.52 481.34, 542.27 480.31, 543.32 478.31 C 544.37 476.30, 544.67 475.19, 544.96 473.13 C 545.25 471.07, 545.17 470.00, 544.77 468.00 C 544.36 466.00, 543.91 464.96, 542.93 463.14 C 541.94 461.32, 541.24 460.44, 539.86 458.89 C 538.47 457.35, 537.61 456.63, 536.02 455.42 C 534.42 454.22, 533.50 453.68, 531.88 452.87 C 530.25 452.07, 529.24 451.82, 527.91 451.41 C 526.58 450.99, 525.77 450.88, 525.22 450.79 C 524.68 450.70, 524.67 450.76, 525.18 450.96 C 525.69 451.15, 526.49 451.31, 527.78 451.78 C 529.08 452.25, 530.07 452.50, 531.66 453.31 C 533.25 454.11, 534.16 454.63, 535.72 455.81 C 537.29 456.99, 538.14 457.71, 539.50 459.22 C 540.85 460.73, 541.54 461.59, 542.51 463.37 C 543.48 465.14, 543.92 466.15, 544.33 468.09 C 544.73 470.03, 544.81 471.07, 544.54 473.07 C 544.26 475.07, 543.96 476.15, 542.93 478.11 C 541.91 480.06, 541.18 481.07, 539.40 482.86 C 537.62 484.66, 536.50 485.53, 534.05 487.09 C 531.59 488.65, 530.12 489.43, 527.13 490.65 C 524.13 491.87, 522.40 492.42, 519.08 493.18 C 515.76 493.95, 513.97 494.22, 510.53 494.47 C 507.09 494.73, 505.20 494.75, 501.86 494.46 C 498.52 494.16, 496.78 493.84, 493.83 492.99 C 490.89 492.13, 489.46 491.51, 487.14 490.18 C 484.81 488.84, 483.75 488.05, 482.22 486.31 C 480.68 484.58, 480.13 483.54, 479.44 481.50 C 478.76 479.46, 478.64 478.30, 478.79 476.11 C 478.94 473.92, 479.28 472.74, 480.20 470.56 C 481.11 468.37, 481.82 467.23, 483.38 465.18 C 484.94 463.14, 485.96 462.12, 488.00 460.33 C 490.04 458.54, 491.27 457.71, 493.60 456.23 C 495.92 454.76, 497.21 454.06, 499.63 452.98 C 502.04 451.89, 503.34 451.45, 505.69 450.80 C 508.04 450.14, 509.23 449.96, 511.37 449.70 C 513.52 449.44, 514.57 449.41, 516.41 449.51 C 518.25 449.61, 519.05 449.73, 520.56 450.21 C 522.08 450.70, 522.81 451.19, 524.00 451.92 C 525.18 452.65, 525.66 453.15, 526.48 453.87 C 527.29 454.60, 527.71 455.24, 528.06 455.55 C 528.41 455.85, 528.47 455.81, 528.22 455.41" style="stroke: black; fill: black;"/><path d="M 560.63,451.17 C 560.43 451.39, 560.15 451.60, 559.81 452.35 C 559.46 453.11, 559.21 453.62, 558.90 454.94 C 558.59 456.26, 558.40 457.19, 558.25 458.94 C 558.11 460.70, 558.06 461.75, 558.16 463.74 C 558.25 465.73, 558.35 466.84, 558.74 468.91 C 559.14 470.99, 559.40 472.09, 560.15 474.11 C 560.89 476.13, 561.35 477.18, 562.47 479.01 C 563.59 480.83, 564.26 481.73, 565.76 483.24 C 567.25 484.75, 568.13 485.47, 569.93 486.57 C 571.73 487.66, 572.75 488.12, 574.75 488.72 C 576.75 489.32, 577.83 489.49, 579.92 489.57 C 582.00 489.64, 583.12 489.56, 585.18 489.12 C 587.24 488.67, 588.30 488.29, 590.22 487.35 C 592.13 486.42, 593.10 485.79, 594.78 484.43 C 596.46 483.06, 597.26 482.26, 598.61 480.52 C 599.96 478.79, 600.53 477.76, 601.53 475.75 C 602.53 473.74, 602.95 472.60, 603.61 470.48 C 604.27 468.36, 604.50 467.21, 604.83 465.14 C 605.15 463.06, 605.20 461.94, 605.23 460.10 C 605.26 458.26, 605.13 457.19, 605.00 455.92 C 604.86 454.64, 604.69 454.08, 604.53 453.74 C 604.38 453.39, 604.27 453.55, 604.24 454.21 C 604.21 454.88, 604.21 455.54, 604.39 457.07 C 604.57 458.59, 604.72 459.73, 605.14 461.82 C 605.55 463.92, 605.84 465.21, 606.44 467.56 C 607.05 469.91, 607.38 471.20, 608.18 473.57 C 608.98 475.95, 609.43 477.17, 610.44 479.43 C 611.46 481.69, 612.03 482.86, 613.25 484.87 C 614.46 486.89, 615.13 487.88, 616.51 489.52 C 617.89 491.16, 618.67 491.91, 620.15 493.08 C 621.63 494.25, 622.42 494.74, 623.90 495.35 C 625.39 495.96, 626.26 496.05, 627.56 496.11 C 628.86 496.17, 629.50 495.94, 630.40 495.67 C 631.30 495.40, 631.75 494.97, 632.06 494.76 C 632.38 494.55, 632.35 494.50, 632.00 494.62 C 631.64 494.73, 631.19 495.12, 630.31 495.33 C 629.43 495.54, 628.84 495.76, 627.59 495.68 C 626.34 495.60, 625.50 495.54, 624.07 494.95 C 622.64 494.35, 621.87 493.87, 620.43 492.73 C 618.99 491.58, 618.22 490.84, 616.87 489.22 C 615.52 487.60, 614.85 486.62, 613.66 484.63 C 612.46 482.63, 611.89 481.48, 610.89 479.23 C 609.89 476.99, 609.44 475.77, 608.66 473.41 C 607.88 471.05, 607.56 469.76, 606.98 467.42 C 606.40 465.08, 606.16 463.79, 605.75 461.70 C 605.35 459.62, 605.20 458.49, 604.95 456.99 C 604.70 455.48, 604.62 454.84, 604.51 454.20 C 604.40 453.55, 604.38 453.42, 604.39 453.77 C 604.40 454.12, 604.49 454.69, 604.56 455.95 C 604.63 457.22, 604.78 458.27, 604.74 460.09 C 604.70 461.91, 604.67 463.01, 604.35 465.06 C 604.03 467.11, 603.80 468.24, 603.15 470.34 C 602.49 472.43, 602.08 473.55, 601.09 475.53 C 600.11 477.51, 599.56 478.53, 598.24 480.23 C 596.91 481.94, 596.12 482.72, 594.48 484.06 C 592.83 485.40, 591.88 486.01, 590.01 486.93 C 588.13 487.84, 587.10 488.22, 585.08 488.65 C 583.07 489.09, 581.98 489.17, 579.94 489.09 C 577.90 489.02, 576.84 488.86, 574.88 488.27 C 572.93 487.69, 571.93 487.24, 570.18 486.17 C 568.42 485.09, 567.55 484.39, 566.09 482.91 C 564.63 481.43, 563.98 480.55, 562.88 478.75 C 561.78 476.96, 561.33 475.93, 560.61 473.94 C 559.88 471.95, 559.63 470.86, 559.24 468.82 C 558.86 466.77, 558.78 465.68, 558.69 463.71 C 558.61 461.75, 558.68 460.72, 558.83 458.99 C 558.98 457.26, 559.18 456.36, 559.45 455.06 C 559.72 453.77, 559.92 453.27, 560.19 452.51 C 560.46 451.75, 560.70 451.53, 560.79 451.26 C 560.88 450.99, 560.83 450.95, 560.63 451.17" style="stroke: black; fill: black;"/><path d="M 638.23,459.04 C 638.23 459.47, 638.26 460.04, 638.39 461.17 C 638.53 462.30, 638.62 463.04, 638.90 464.69 C 639.18 466.35, 639.41 467.48, 639.81 469.46 C 640.20 471.44, 640.45 472.54, 640.87 474.60 C 641.29 476.67, 641.51 477.76, 641.90 479.78 C 642.30 481.80, 642.53 482.90, 642.84 484.70 C 643.16 486.50, 643.30 487.54, 643.48 488.79 C 643.65 490.03, 643.73 490.61, 643.74 490.92 C 643.75 491.23, 643.74 491.09, 643.51 490.34 C 643.28 489.58, 643.09 488.75, 642.57 487.13 C 642.06 485.51, 641.64 484.33, 640.93 482.24 C 640.22 480.14, 639.75 478.87, 639.03 476.64 C 638.32 474.40, 637.93 473.23, 637.35 471.06 C 636.77 468.89, 636.50 467.84, 636.14 465.80 C 635.78 463.75, 635.63 462.72, 635.56 460.81 C 635.50 458.91, 635.49 458.00, 635.81 456.29 C 636.13 454.58, 636.38 453.73, 637.17 452.27 C 637.95 450.80, 638.43 450.11, 639.74 448.96 C 641.05 447.82, 641.86 447.33, 643.72 446.53 C 645.58 445.73, 646.72 445.42, 649.05 444.98 C 651.38 444.54, 652.93 444.50, 655.37 444.35 C 657.81 444.19, 659.23 444.23, 661.24 444.21 C 663.25 444.20, 664.59 444.29, 665.43 444.26 C 666.27 444.24, 666.27 444.18, 665.44 444.08 C 664.60 443.98, 663.26 443.83, 661.25 443.78 C 659.23 443.72, 657.80 443.66, 655.34 443.80 C 652.88 443.94, 651.31 444.00, 648.95 444.46 C 646.59 444.92, 645.43 445.25, 643.53 446.09 C 641.62 446.92, 640.79 447.43, 639.44 448.63 C 638.09 449.82, 637.59 450.54, 636.78 452.06 C 635.96 453.57, 635.70 454.45, 635.37 456.20 C 635.04 457.96, 635.05 458.89, 635.11 460.83 C 635.17 462.76, 635.33 463.80, 635.68 465.87 C 636.04 467.95, 636.31 469.00, 636.88 471.19 C 637.44 473.37, 637.82 474.55, 638.51 476.80 C 639.20 479.05, 639.63 480.33, 640.33 482.44 C 641.03 484.54, 641.44 485.72, 642.02 487.32 C 642.60 488.92, 642.85 489.73, 643.22 490.45 C 643.59 491.18, 643.73 491.28, 643.87 490.94 C 644.00 490.60, 644.01 490.00, 643.91 488.74 C 643.80 487.47, 643.64 486.42, 643.33 484.61 C 643.03 482.80, 642.79 481.71, 642.40 479.69 C 642.01 477.66, 641.79 476.57, 641.38 474.50 C 640.98 472.43, 640.76 471.33, 640.37 469.35 C 639.98 467.37, 639.76 466.25, 639.45 464.60 C 639.14 462.95, 639.02 462.22, 638.82 461.10 C 638.61 459.99, 638.54 459.43, 638.43 459.02 C 638.31 458.61, 638.24 458.61, 638.23 459.04" style="stroke: black; fill: black;"/><path d="M 773.44,419.58 C 773.33 419.92, 773.14 420.31, 773.07 421.32 C 773.01 422.34, 773.01 422.95, 773.09 424.65 C 773.18 426.35, 773.26 427.51, 773.51 429.81 C 773.76 432.11, 773.97 433.40, 774.35 436.16 C 774.73 438.91, 774.94 440.48, 775.42 443.60 C 775.90 446.72, 776.16 448.44, 776.77 451.77 C 777.37 455.10, 777.69 456.87, 778.43 460.24 C 779.17 463.60, 779.58 465.35, 780.46 468.61 C 781.35 471.86, 781.85 473.55, 782.84 476.52 C 783.83 479.49, 784.37 480.93, 785.41 483.47 C 786.45 486.00, 787.00 487.22, 788.05 489.19 C 789.10 491.15, 789.64 492.07, 790.65 493.30 C 791.66 494.53, 792.17 494.96, 793.10 495.34 C 794.03 495.71, 794.48 495.70, 795.30 495.19 C 796.12 494.67, 796.51 494.15, 797.20 492.76 C 797.89 491.37, 798.18 490.35, 798.77 488.26 C 799.36 486.17, 799.60 484.87, 800.13 482.31 C 800.66 479.76, 800.92 478.27, 801.42 475.49 C 801.92 472.71, 802.16 471.21, 802.65 468.43 C 803.14 465.65, 803.40 464.25, 803.86 461.59 C 804.33 458.94, 804.57 457.59, 804.97 455.16 C 805.36 452.73, 805.50 451.30, 805.85 449.44 C 806.19 447.58, 806.35 446.72, 806.70 445.87 C 807.05 445.02, 807.18 444.86, 807.59 445.18 C 807.99 445.50, 808.13 446.04, 808.71 447.48 C 809.30 448.91, 809.65 450.09, 810.51 452.36 C 811.37 454.62, 811.93 456.10, 813.02 458.80 C 814.12 461.49, 814.71 463.01, 816.00 465.82 C 817.29 468.63, 817.99 470.11, 819.46 472.85 C 820.92 475.58, 821.74 477.00, 823.33 479.50 C 824.92 482.00, 825.76 483.25, 827.42 485.34 C 829.09 487.43, 829.98 488.39, 831.66 489.94 C 833.34 491.50, 834.21 492.17, 835.81 493.11 C 837.41 494.06, 838.20 494.40, 839.66 494.67 C 841.12 494.94, 841.83 494.92, 843.11 494.45 C 844.38 493.99, 844.97 493.58, 846.03 492.36 C 847.08 491.13, 847.55 490.31, 848.40 488.34 C 849.25 486.37, 849.62 485.14, 850.28 482.51 C 850.94 479.88, 851.21 478.34, 851.69 475.18 C 852.16 472.03, 852.35 470.25, 852.64 466.73 C 852.93 463.20, 853.04 461.28, 853.14 457.58 C 853.23 453.87, 853.24 451.92, 853.12 448.20 C 853.01 444.48, 852.89 442.55, 852.58 438.97 C 852.27 435.39, 852.05 433.59, 851.59 430.30 C 851.14 427.01, 850.85 425.38, 850.30 422.51 C 849.75 419.64, 849.43 418.30, 848.85 415.95 C 848.26 413.61, 847.93 412.53, 847.36 410.79 C 846.79 409.05, 846.45 408.33, 846.00 407.25 C 845.55 406.17, 845.30 405.76, 845.10 405.40 C 844.89 405.04, 844.85 405.06, 844.98 405.45 C 845.10 405.85, 845.31 406.27, 845.71 407.36 C 846.11 408.46, 846.41 409.18, 846.95 410.92 C 847.49 412.66, 847.83 413.72, 848.41 416.06 C 849.00 418.40, 849.31 419.74, 849.87 422.60 C 850.42 425.46, 850.73 427.08, 851.20 430.36 C 851.66 433.64, 851.89 435.44, 852.20 439.01 C 852.51 442.58, 852.64 444.50, 852.75 448.21 C 852.86 451.93, 852.86 453.87, 852.75 457.57 C 852.65 461.26, 852.53 463.18, 852.23 466.69 C 851.92 470.20, 851.72 471.98, 851.22 475.11 C 850.73 478.25, 850.42 479.77, 849.76 482.38 C 849.10 484.98, 848.74 486.20, 847.93 488.14 C 847.12 490.08, 846.68 490.88, 845.69 492.07 C 844.70 493.26, 844.17 493.66, 842.98 494.10 C 841.79 494.54, 841.12 494.56, 839.74 494.29 C 838.35 494.02, 837.58 493.68, 836.03 492.75 C 834.48 491.81, 833.62 491.16, 831.97 489.62 C 830.32 488.08, 829.44 487.12, 827.79 485.05 C 826.14 482.98, 825.30 481.74, 823.72 479.25 C 822.13 476.77, 821.31 475.36, 819.86 472.63 C 818.40 469.91, 817.69 468.43, 816.43 465.62 C 815.17 462.82, 814.61 461.29, 813.54 458.59 C 812.47 455.89, 811.96 454.40, 811.08 452.14 C 810.20 449.88, 809.82 448.71, 809.15 447.28 C 808.47 445.86, 808.23 445.34, 807.69 445.03 C 807.15 444.72, 806.90 444.88, 806.44 445.75 C 805.98 446.61, 805.78 447.48, 805.39 449.35 C 804.99 451.22, 804.88 452.65, 804.48 455.08 C 804.09 457.51, 803.85 458.86, 803.39 461.51 C 802.92 464.16, 802.66 465.56, 802.16 468.34 C 801.66 471.12, 801.42 472.62, 800.90 475.40 C 800.39 478.17, 800.12 479.66, 799.59 482.20 C 799.05 484.74, 798.79 486.04, 798.22 488.11 C 797.66 490.18, 797.38 491.19, 796.77 492.55 C 796.15 493.92, 795.84 494.43, 795.13 494.93 C 794.42 495.43, 794.05 495.44, 793.22 495.06 C 792.38 494.69, 791.91 494.27, 790.96 493.06 C 790.00 491.84, 789.47 490.93, 788.44 488.98 C 787.42 487.03, 786.88 485.81, 785.84 483.29 C 784.80 480.77, 784.25 479.34, 783.25 476.38 C 782.25 473.43, 781.74 471.75, 780.86 468.50 C 779.97 465.25, 779.56 463.51, 778.82 460.15 C 778.09 456.79, 777.77 455.02, 777.18 451.70 C 776.60 448.37, 776.34 446.65, 775.88 443.53 C 775.42 440.41, 775.25 438.84, 774.89 436.08 C 774.53 433.33, 774.33 432.04, 774.08 429.75 C 773.83 427.45, 773.76 426.30, 773.64 424.62 C 773.52 422.93, 773.48 422.34, 773.48 421.34 C 773.47 420.33, 773.63 419.95, 773.62 419.60 C 773.61 419.25, 773.55 419.23, 773.44 419.58" style="stroke: black; fill: black;"/><path d="M 872.36,476.46 C 872.84 476.30, 873.47 476.04, 874.66 475.49 C 875.84 474.94, 876.59 474.56, 878.30 473.71 C 880.00 472.86, 881.17 472.34, 883.19 471.24 C 885.20 470.15, 886.32 469.47, 888.37 468.21 C 890.41 466.95, 891.49 466.25, 893.41 464.94 C 895.32 463.63, 896.32 462.96, 897.94 461.66 C 899.56 460.36, 900.35 459.72, 901.52 458.46 C 902.69 457.19, 903.19 456.54, 903.78 455.35 C 904.37 454.15, 904.54 453.55, 904.46 452.48 C 904.38 451.41, 904.16 450.86, 903.38 450.01 C 902.61 449.15, 902.01 448.72, 900.59 448.21 C 899.16 447.70, 898.24 447.50, 896.27 447.44 C 894.30 447.39, 893.10 447.48, 890.72 447.93 C 888.34 448.39, 886.96 448.76, 884.37 449.73 C 881.78 450.70, 880.35 451.35, 877.77 452.78 C 875.20 454.21, 873.82 455.08, 871.50 456.87 C 869.18 458.66, 868.00 459.68, 866.17 461.73 C 864.34 463.78, 863.48 464.92, 862.34 467.12 C 861.20 469.31, 860.77 470.50, 860.46 472.73 C 860.15 474.95, 860.18 476.11, 860.79 478.23 C 861.39 480.36, 861.94 481.43, 863.50 483.33 C 865.06 485.23, 866.10 486.17, 868.59 487.74 C 871.07 489.31, 872.63 490.02, 875.90 491.18 C 879.17 492.34, 881.10 492.81, 884.95 493.54 C 888.81 494.27, 890.99 494.51, 895.17 494.82 C 899.34 495.13, 901.94 495.11, 905.83 495.10 C 909.72 495.08, 911.72 494.95, 914.63 494.74 C 917.54 494.54, 919.23 494.25, 920.38 494.09 C 921.53 493.92, 921.52 493.87, 920.37 493.92 C 919.21 493.98, 917.51 494.21, 914.61 494.37 C 911.70 494.53, 909.71 494.70, 905.83 494.72 C 901.94 494.74, 899.36 494.78, 895.19 494.47 C 891.03 494.16, 888.85 493.91, 885.02 493.17 C 881.19 492.44, 879.28 491.95, 876.04 490.78 C 872.80 489.62, 871.28 488.88, 868.84 487.33 C 866.40 485.79, 865.38 484.88, 863.85 483.04 C 862.32 481.20, 861.79 480.17, 861.20 478.12 C 860.61 476.07, 860.58 474.95, 860.89 472.79 C 861.20 470.63, 861.61 469.47, 862.74 467.32 C 863.87 465.18, 864.71 464.07, 866.52 462.05 C 868.33 460.04, 869.49 459.02, 871.79 457.25 C 874.09 455.48, 875.46 454.61, 878.01 453.21 C 880.57 451.81, 882.00 451.18, 884.56 450.23 C 887.12 449.28, 888.48 448.91, 890.82 448.46 C 893.16 448.01, 894.34 447.93, 896.26 447.97 C 898.18 448.01, 899.06 448.20, 900.43 448.66 C 901.80 449.12, 902.36 449.51, 903.09 450.28 C 903.83 451.05, 904.04 451.52, 904.10 452.50 C 904.17 453.48, 904.01 454.04, 903.43 455.17 C 902.84 456.30, 902.35 456.93, 901.20 458.16 C 900.04 459.38, 899.26 460.02, 897.65 461.29 C 896.03 462.57, 895.04 463.24, 893.13 464.53 C 891.21 465.83, 890.13 466.52, 888.09 467.76 C 886.05 469.00, 884.92 469.65, 882.91 470.74 C 880.91 471.83, 879.74 472.34, 878.05 473.21 C 876.36 474.08, 875.62 474.49, 874.47 475.11 C 873.31 475.72, 872.70 476.01, 872.28 476.28 C 871.86 476.55, 871.88 476.62, 872.36 476.46" style="stroke: black; fill: black;"/><path d="M 967.30,464.24 C 967.11 463.75, 966.81 462.91, 966.17 461.89 C 965.53 460.87, 965.14 460.21, 964.10 459.14 C 963.07 458.08, 962.41 457.38, 961.00 456.57 C 959.59 455.77, 958.79 455.52, 957.05 455.10 C 955.31 454.68, 954.32 454.55, 952.31 454.48 C 950.29 454.41, 949.15 454.43, 946.97 454.76 C 944.80 455.09, 943.61 455.36, 941.42 456.15 C 939.24 456.93, 938.09 457.46, 936.04 458.67 C 933.99 459.89, 932.93 460.62, 931.16 462.22 C 929.40 463.82, 928.54 464.76, 927.22 466.67 C 925.90 468.57, 925.32 469.68, 924.56 471.74 C 923.80 473.79, 923.52 474.88, 923.40 476.95 C 923.29 479.02, 923.42 480.11, 923.99 482.08 C 924.56 484.04, 925.06 485.09, 926.25 486.78 C 927.45 488.48, 928.22 489.26, 929.98 490.55 C 931.75 491.84, 932.87 492.42, 935.07 493.25 C 937.27 494.07, 938.53 494.38, 940.99 494.66 C 943.45 494.95, 944.82 494.94, 947.37 494.69 C 949.92 494.43, 951.27 494.18, 953.74 493.38 C 956.20 492.59, 957.45 492.00, 959.69 490.71 C 961.93 489.43, 963.06 488.66, 964.96 486.95 C 966.86 485.23, 967.69 484.23, 969.19 482.13 C 970.70 480.03, 971.39 478.86, 972.48 476.45 C 973.56 474.04, 973.98 472.71, 974.63 470.08 C 975.28 467.45, 975.47 466.06, 975.73 463.30 C 975.98 460.54, 975.99 459.10, 975.90 456.30 C 975.81 453.50, 975.65 452.03, 975.28 449.29 C 974.91 446.54, 974.61 445.16, 974.05 442.58 C 973.48 439.99, 973.11 438.70, 972.44 436.37 C 971.77 434.04, 971.39 432.89, 970.71 430.92 C 970.03 428.95, 969.66 427.99, 969.04 426.52 C 968.42 425.05, 968.07 424.23, 967.60 423.57 C 967.14 422.92, 966.93 422.79, 966.72 423.25 C 966.51 423.71, 966.50 424.38, 966.57 425.89 C 966.63 427.39, 966.72 428.43, 967.04 430.75 C 967.37 433.07, 967.65 434.59, 968.19 437.48 C 968.74 440.38, 969.09 442.03, 969.77 445.22 C 970.45 448.41, 970.81 450.10, 971.60 453.44 C 972.39 456.77, 972.79 458.54, 973.70 461.90 C 974.62 465.26, 975.11 467.00, 976.17 470.25 C 977.24 473.50, 977.81 475.16, 979.02 478.13 C 980.23 481.10, 980.84 482.52, 982.21 485.09 C 983.58 487.65, 984.50 488.95, 985.87 490.94 C 987.25 492.94, 987.99 493.79, 989.08 495.08 C 990.17 496.36, 990.85 496.94, 991.32 497.37 C 991.79 497.81, 991.83 497.78, 991.43 497.27 C 991.04 496.77, 990.39 496.17, 989.35 494.86 C 988.32 493.54, 987.60 492.68, 986.25 490.68 C 984.91 488.69, 983.98 487.41, 982.62 484.87 C 981.25 482.33, 980.62 480.92, 979.41 477.97 C 978.19 475.03, 977.62 473.36, 976.55 470.12 C 975.49 466.89, 975.00 465.15, 974.09 461.80 C 973.18 458.44, 972.77 456.68, 972.00 453.34 C 971.23 450.01, 970.87 448.32, 970.22 445.13 C 969.56 441.94, 969.25 440.28, 968.73 437.39 C 968.22 434.49, 967.98 432.97, 967.64 430.67 C 967.31 428.36, 967.20 427.32, 967.05 425.85 C 966.90 424.38, 966.82 423.73, 966.89 423.30 C 966.95 422.87, 967.02 423.04, 967.37 423.71 C 967.71 424.39, 968.04 425.22, 968.62 426.69 C 969.20 428.16, 969.60 429.11, 970.27 431.07 C 970.94 433.03, 971.32 434.18, 971.99 436.50 C 972.65 438.82, 973.02 440.11, 973.58 442.68 C 974.14 445.25, 974.43 446.62, 974.80 449.35 C 975.17 452.08, 975.32 453.53, 975.41 456.31 C 975.50 459.10, 975.49 460.53, 975.24 463.26 C 974.99 465.98, 974.80 467.36, 974.16 469.96 C 973.52 472.56, 973.11 473.87, 972.04 476.25 C 970.97 478.63, 970.29 479.79, 968.81 481.86 C 967.33 483.93, 966.51 484.91, 964.64 486.60 C 962.77 488.28, 961.66 489.03, 959.45 490.30 C 957.24 491.56, 956.02 492.14, 953.59 492.92 C 951.16 493.70, 949.83 493.95, 947.32 494.20 C 944.81 494.45, 943.47 494.46, 941.05 494.17 C 938.63 493.89, 937.40 493.59, 935.24 492.79 C 933.08 491.99, 931.98 491.42, 930.26 490.17 C 928.54 488.91, 927.80 488.16, 926.63 486.52 C 925.46 484.87, 924.98 483.86, 924.43 481.95 C 923.87 480.04, 923.74 478.98, 923.86 476.97 C 923.97 474.96, 924.25 473.91, 925.00 471.90 C 925.75 469.89, 926.31 468.80, 927.61 466.94 C 928.91 465.07, 929.75 464.15, 931.49 462.58 C 933.23 461.01, 934.27 460.29, 936.29 459.10 C 938.31 457.90, 939.44 457.38, 941.59 456.62 C 943.74 455.85, 944.91 455.59, 947.05 455.26 C 949.19 454.93, 950.31 454.92, 952.29 454.98 C 954.27 455.04, 955.25 455.17, 956.94 455.57 C 958.63 455.98, 959.38 456.23, 960.74 457.01 C 962.10 457.80, 962.72 458.49, 963.73 459.51 C 964.74 460.54, 965.12 461.17, 965.79 462.14 C 966.47 463.10, 966.80 463.92, 967.10 464.34 C 967.41 464.76, 967.48 464.73, 967.30 464.24" style="stroke: black; fill: black;"/><path d="M 1034.56,471.70 C 1034.35 471.16, 1033.99 470.21, 1033.31 469.12 C 1032.64 468.02, 1032.22 467.37, 1031.18 466.23 C 1030.14 465.09, 1029.48 464.31, 1028.11 463.43 C 1026.74 462.55, 1025.97 462.29, 1024.32 461.84 C 1022.67 461.38, 1021.72 461.25, 1019.86 461.15 C 1018.00 461.05, 1016.99 461.04, 1015.03 461.35 C 1013.08 461.67, 1012.03 461.94, 1010.09 462.72 C 1008.15 463.50, 1007.11 464.02, 1005.34 465.26 C 1003.56 466.50, 1002.66 467.26, 1001.22 468.92 C 999.78 470.58, 999.10 471.60, 998.12 473.56 C 997.14 475.51, 996.74 476.65, 996.32 478.72 C 995.90 480.79, 995.83 481.91, 996.04 483.91 C 996.25 485.91, 996.53 486.95, 997.36 488.72 C 998.20 490.49, 998.79 491.35, 1000.21 492.76 C 1001.63 494.17, 1002.54 494.80, 1004.47 495.76 C 1006.39 496.73, 1007.54 497.14, 1009.83 497.57 C 1012.12 498.01, 1013.45 498.07, 1015.93 497.93 C 1018.42 497.79, 1019.78 497.56, 1022.25 496.87 C 1024.72 496.18, 1025.98 495.69, 1028.28 494.49 C 1030.58 493.28, 1031.74 492.53, 1033.73 490.85 C 1035.72 489.18, 1036.65 488.20, 1038.24 486.11 C 1039.83 484.02, 1040.53 482.84, 1041.68 480.41 C 1042.82 477.98, 1043.26 476.64, 1043.96 473.96 C 1044.65 471.27, 1044.86 469.81, 1045.14 466.99 C 1045.42 464.16, 1045.43 462.67, 1045.36 459.81 C 1045.29 456.95, 1045.14 455.48, 1044.79 452.68 C 1044.44 449.89, 1044.16 448.46, 1043.63 445.83 C 1043.09 443.21, 1042.74 441.90, 1042.12 439.55 C 1041.50 437.19, 1041.15 436.03, 1040.53 434.06 C 1039.91 432.08, 1039.58 431.11, 1039.02 429.67 C 1038.45 428.24, 1038.16 427.58, 1037.72 426.88 C 1037.28 426.18, 1037.06 425.98, 1036.82 426.16 C 1036.58 426.34, 1036.49 426.68, 1036.51 427.79 C 1036.52 428.89, 1036.62 429.77, 1036.91 431.69 C 1037.21 433.62, 1037.46 434.87, 1037.98 437.41 C 1038.51 439.95, 1038.86 441.44, 1039.53 444.38 C 1040.20 447.32, 1040.57 448.93, 1041.35 452.11 C 1042.13 455.29, 1042.54 456.99, 1043.44 460.28 C 1044.33 463.58, 1044.83 465.35, 1045.83 468.60 C 1046.84 471.84, 1047.35 473.48, 1048.47 476.52 C 1049.59 479.56, 1050.20 481.09, 1051.44 483.79 C 1052.68 486.49, 1053.34 487.79, 1054.67 490.03 C 1056.00 492.26, 1056.69 493.29, 1058.10 494.97 C 1059.51 496.64, 1060.27 497.35, 1061.71 498.41 C 1063.16 499.47, 1063.90 499.85, 1065.33 500.26 C 1066.77 500.67, 1067.50 500.70, 1068.89 500.46 C 1070.29 500.23, 1071.02 499.94, 1072.31 499.07 C 1073.59 498.21, 1074.20 497.58, 1075.32 496.15 C 1076.43 494.72, 1076.94 493.82, 1077.88 491.93 C 1078.82 490.04, 1079.27 488.91, 1080.00 486.69 C 1080.73 484.47, 1081.01 483.20, 1081.52 480.83 C 1082.04 478.45, 1082.23 477.14, 1082.56 474.82 C 1082.90 472.49, 1083.05 471.25, 1083.18 469.21 C 1083.32 467.18, 1083.26 465.99, 1083.24 464.64 C 1083.22 463.30, 1083.13 462.71, 1083.06 462.48 C 1082.99 462.24, 1082.91 462.60, 1082.89 463.47 C 1082.87 464.34, 1082.81 465.11, 1082.97 466.83 C 1083.13 468.55, 1083.32 469.83, 1083.70 472.05 C 1084.08 474.26, 1084.32 475.58, 1084.85 477.90 C 1085.39 480.23, 1085.71 481.43, 1086.36 483.68 C 1087.01 485.94, 1087.39 487.14, 1088.11 489.20 C 1088.82 491.25, 1089.19 492.27, 1089.92 493.96 C 1090.66 495.64, 1091.16 496.51, 1091.77 497.64 C 1092.39 498.77, 1092.74 499.24, 1093.01 499.62 C 1093.28 500.01, 1093.32 499.98, 1093.14 499.55 C 1092.95 499.12, 1092.65 498.63, 1092.09 497.48 C 1091.53 496.32, 1091.06 495.46, 1090.36 493.77 C 1089.65 492.08, 1089.27 491.09, 1088.56 489.04 C 1087.86 487.00, 1087.48 485.80, 1086.84 483.55 C 1086.20 481.30, 1085.89 480.11, 1085.38 477.79 C 1084.88 475.47, 1084.68 474.15, 1084.32 471.94 C 1083.95 469.74, 1083.77 468.46, 1083.55 466.77 C 1083.33 465.07, 1083.32 464.31, 1083.21 463.45 C 1083.09 462.60, 1083.05 462.24, 1082.98 462.48 C 1082.90 462.71, 1082.89 463.30, 1082.83 464.64 C 1082.77 465.98, 1082.84 467.16, 1082.69 469.18 C 1082.53 471.20, 1082.40 472.44, 1082.07 474.75 C 1081.74 477.05, 1081.54 478.36, 1081.02 480.72 C 1080.51 483.07, 1080.23 484.33, 1079.51 486.53 C 1078.79 488.73, 1078.33 489.84, 1077.42 491.70 C 1076.50 493.57, 1076.00 494.45, 1074.93 495.85 C 1073.85 497.25, 1073.27 497.86, 1072.05 498.70 C 1070.83 499.54, 1070.15 499.83, 1068.82 500.06 C 1067.50 500.30, 1066.82 500.27, 1065.44 499.87 C 1064.07 499.48, 1063.36 499.11, 1061.96 498.08 C 1060.56 497.04, 1059.81 496.34, 1058.43 494.69 C 1057.05 493.03, 1056.38 492.01, 1055.06 489.80 C 1053.74 487.58, 1053.08 486.29, 1051.84 483.61 C 1050.60 480.92, 1049.98 479.40, 1048.86 476.37 C 1047.74 473.35, 1047.23 471.72, 1046.22 468.48 C 1045.22 465.24, 1044.72 463.47, 1043.83 460.18 C 1042.95 456.88, 1042.54 455.18, 1041.78 452.00 C 1041.02 448.82, 1040.67 447.21, 1040.02 444.27 C 1039.38 441.33, 1039.06 439.83, 1038.56 437.29 C 1038.05 434.76, 1037.83 433.50, 1037.50 431.60 C 1037.17 429.69, 1037.05 428.83, 1036.93 427.76 C 1036.81 426.69, 1036.79 426.38, 1036.89 426.23 C 1037.00 426.09, 1037.11 426.31, 1037.45 427.02 C 1037.80 427.74, 1038.08 428.39, 1038.61 429.83 C 1039.13 431.26, 1039.48 432.23, 1040.09 434.20 C 1040.70 436.16, 1041.05 437.32, 1041.66 439.67 C 1042.28 442.01, 1042.63 443.31, 1043.16 445.93 C 1043.69 448.54, 1043.97 449.96, 1044.31 452.74 C 1044.66 455.52, 1044.81 456.99, 1044.88 459.82 C 1044.95 462.66, 1044.94 464.14, 1044.66 466.94 C 1044.38 469.74, 1044.17 471.18, 1043.49 473.84 C 1042.81 476.49, 1042.37 477.81, 1041.25 480.21 C 1040.12 482.61, 1039.43 483.77, 1037.86 485.83 C 1036.30 487.88, 1035.39 488.84, 1033.43 490.49 C 1031.46 492.14, 1030.32 492.88, 1028.05 494.06 C 1025.79 495.24, 1024.55 495.72, 1022.12 496.40 C 1019.69 497.07, 1018.34 497.30, 1015.90 497.43 C 1013.47 497.57, 1012.17 497.51, 1009.92 497.09 C 1007.68 496.67, 1006.56 496.27, 1004.68 495.33 C 1002.80 494.40, 1001.92 493.79, 1000.54 492.43 C 999.15 491.07, 998.58 490.24, 997.77 488.52 C 996.96 486.81, 996.69 485.80, 996.49 483.86 C 996.30 481.92, 996.37 480.83, 996.78 478.82 C 997.20 476.80, 997.59 475.69, 998.55 473.77 C 999.51 471.86, 1000.17 470.86, 1001.59 469.24 C 1003.00 467.62, 1003.88 466.87, 1005.62 465.66 C 1007.35 464.45, 1008.37 463.94, 1010.27 463.18 C 1012.17 462.41, 1013.20 462.15, 1015.11 461.84 C 1017.02 461.53, 1018.02 461.55, 1019.83 461.64 C 1021.65 461.73, 1022.59 461.86, 1024.19 462.30 C 1025.79 462.74, 1026.52 463.00, 1027.84 463.85 C 1029.16 464.71, 1029.78 465.48, 1030.79 466.58 C 1031.81 467.69, 1032.22 468.32, 1032.93 469.37 C 1033.64 470.41, 1034.04 471.34, 1034.37 471.80 C 1034.69 472.27, 1034.77 472.24, 1034.56 471.70" style="stroke: black; fill: black;"/><path d="M 1076.50,433.17 C 1076.61 433.06, 1076.71 432.79, 1076.85 432.54 C 1076.98 432.29, 1077.13 432.08, 1077.16 431.93 C 1077.18 431.78, 1077.12 431.72, 1076.97 431.79 C 1076.83 431.87, 1076.58 432.06, 1076.43 432.32 C 1076.29 432.57, 1076.26 432.91, 1076.27 433.08 C 1076.28 433.25, 1076.38 433.27, 1076.50 433.17" style="stroke: black; fill: black;"/><path d="M 1110.10,464.46 C 1110.13 464.86, 1110.24 465.37, 1110.46 466.40 C 1110.68 467.44, 1110.84 468.11, 1111.20 469.65 C 1111.56 471.19, 1111.84 472.28, 1112.24 474.12 C 1112.65 475.97, 1112.88 476.93, 1113.25 478.89 C 1113.62 480.84, 1113.77 481.92, 1114.09 483.90 C 1114.40 485.88, 1114.55 486.94, 1114.82 488.77 C 1115.09 490.60, 1115.22 491.55, 1115.42 493.05 C 1115.63 494.54, 1115.74 495.39, 1115.86 496.23 C 1115.99 497.08, 1116.04 497.27, 1116.05 497.27 C 1116.07 497.28, 1116.03 497.02, 1115.93 496.24 C 1115.83 495.46, 1115.72 494.84, 1115.55 493.35 C 1115.37 491.86, 1115.23 490.71, 1115.06 488.79 C 1114.89 486.86, 1114.75 485.76, 1114.71 483.73 C 1114.66 481.70, 1114.63 480.68, 1114.82 478.65 C 1115.02 476.62, 1115.16 475.52, 1115.68 473.59 C 1116.20 471.65, 1116.52 470.72, 1117.43 468.97 C 1118.35 467.23, 1118.91 466.35, 1120.26 464.86 C 1121.61 463.38, 1122.42 462.69, 1124.20 461.53 C 1125.97 460.38, 1127.00 459.84, 1129.13 459.09 C 1131.25 458.35, 1132.48 458.05, 1134.81 457.80 C 1137.14 457.54, 1138.42 457.54, 1140.79 457.83 C 1143.16 458.13, 1144.41 458.41, 1146.67 459.28 C 1148.92 460.15, 1150.08 460.76, 1152.08 462.17 C 1154.08 463.58, 1155.02 464.47, 1156.66 466.33 C 1158.29 468.20, 1159.01 469.29, 1160.25 471.48 C 1161.49 473.68, 1161.99 474.95, 1162.85 477.33 C 1163.71 479.72, 1163.96 481.02, 1164.56 483.42 C 1165.16 485.83, 1165.42 487.17, 1165.86 489.34 C 1166.30 491.51, 1166.46 492.67, 1166.76 494.27 C 1167.06 495.87, 1167.22 496.73, 1167.37 497.34 C 1167.52 497.95, 1167.57 497.94, 1167.52 497.31 C 1167.48 496.69, 1167.37 495.82, 1167.14 494.21 C 1166.90 492.60, 1166.76 491.43, 1166.34 489.25 C 1165.92 487.07, 1165.64 485.72, 1165.04 483.30 C 1164.43 480.89, 1164.18 479.58, 1163.30 477.17 C 1162.43 474.76, 1161.93 473.48, 1160.67 471.25 C 1159.41 469.02, 1158.68 467.91, 1157.02 466.02 C 1155.35 464.13, 1154.39 463.22, 1152.36 461.78 C 1150.32 460.34, 1149.14 459.72, 1146.84 458.83 C 1144.54 457.95, 1143.27 457.66, 1140.85 457.35 C 1138.43 457.05, 1137.13 457.05, 1134.75 457.31 C 1132.38 457.57, 1131.13 457.87, 1128.96 458.63 C 1126.80 459.40, 1125.74 459.95, 1123.93 461.13 C 1122.12 462.32, 1121.30 463.02, 1119.91 464.55 C 1118.53 466.07, 1117.96 466.97, 1117.02 468.75 C 1116.08 470.54, 1115.76 471.49, 1115.22 473.46 C 1114.68 475.43, 1114.54 476.55, 1114.33 478.60 C 1114.12 480.66, 1114.15 481.69, 1114.18 483.74 C 1114.20 485.79, 1114.29 486.90, 1114.45 488.84 C 1114.60 490.78, 1114.72 491.94, 1114.94 493.43 C 1115.17 494.93, 1115.35 495.54, 1115.57 496.32 C 1115.79 497.09, 1115.93 497.33, 1116.06 497.30 C 1116.19 497.28, 1116.24 497.06, 1116.21 496.20 C 1116.18 495.34, 1116.09 494.48, 1115.90 492.98 C 1115.72 491.48, 1115.57 490.53, 1115.31 488.70 C 1115.04 486.87, 1114.89 485.80, 1114.58 483.82 C 1114.28 481.84, 1114.12 480.76, 1113.76 478.79 C 1113.41 476.83, 1113.20 475.86, 1112.80 474.00 C 1112.40 472.15, 1112.14 471.06, 1111.75 469.52 C 1111.37 467.98, 1111.16 467.32, 1110.87 466.30 C 1110.58 465.28, 1110.44 464.78, 1110.29 464.41 C 1110.14 464.05, 1110.07 464.06, 1110.10 464.46" style="stroke: black; fill: black;"/><path d="M 1209.94,473.74 C 1209.91 473.23, 1209.90 472.34, 1209.58 471.24 C 1209.26 470.13, 1209.06 469.43, 1208.36 468.23 C 1207.65 467.02, 1207.18 466.22, 1206.05 465.21 C 1204.92 464.20, 1204.22 463.84, 1202.70 463.19 C 1201.18 462.53, 1200.26 462.26, 1198.43 461.93 C 1196.61 461.60, 1195.57 461.47, 1193.58 461.53 C 1191.59 461.59, 1190.51 461.72, 1188.48 462.22 C 1186.46 462.71, 1185.37 463.08, 1183.47 464.01 C 1181.57 464.93, 1180.58 465.53, 1178.98 466.85 C 1177.38 468.17, 1176.61 468.98, 1175.47 470.61 C 1174.32 472.23, 1173.81 473.20, 1173.24 474.97 C 1172.68 476.75, 1172.53 477.73, 1172.65 479.48 C 1172.78 481.23, 1173.05 482.17, 1173.88 483.74 C 1174.71 485.31, 1175.33 486.08, 1176.81 487.32 C 1178.28 488.56, 1179.27 489.14, 1181.24 489.94 C 1183.20 490.74, 1184.39 491.04, 1186.62 491.31 C 1188.85 491.59, 1190.09 491.56, 1192.38 491.32 C 1194.67 491.08, 1195.92 490.81, 1198.06 490.12 C 1200.21 489.44, 1201.28 488.91, 1203.09 487.88 C 1204.90 486.85, 1205.79 486.25, 1207.13 484.97 C 1208.48 483.69, 1209.02 482.90, 1209.82 481.46 C 1210.62 480.03, 1210.86 479.22, 1211.13 477.79 C 1211.40 476.36, 1211.30 475.36, 1211.17 474.32 C 1211.04 473.28, 1210.77 472.76, 1210.48 472.59 C 1210.20 472.41, 1209.96 472.64, 1209.76 473.45 C 1209.55 474.26, 1209.42 474.95, 1209.47 476.64 C 1209.51 478.33, 1209.61 479.53, 1209.99 481.90 C 1210.37 484.26, 1210.69 485.67, 1211.37 488.44 C 1212.05 491.22, 1212.50 492.69, 1213.38 495.77 C 1214.25 498.86, 1214.76 500.53, 1215.76 503.87 C 1216.75 507.21, 1217.34 508.97, 1218.35 512.47 C 1219.36 515.97, 1219.91 517.82, 1220.82 521.39 C 1221.73 524.97, 1222.19 526.81, 1222.88 530.35 C 1223.58 533.88, 1223.91 535.72, 1224.29 539.08 C 1224.67 542.43, 1224.79 544.09, 1224.79 547.11 C 1224.78 550.13, 1224.69 551.58, 1224.25 554.19 C 1223.81 556.79, 1223.49 558.01, 1222.59 560.14 C 1221.69 562.26, 1221.13 563.20, 1219.75 564.81 C 1218.36 566.42, 1217.55 567.13, 1215.66 568.18 C 1213.77 569.24, 1212.69 569.60, 1210.31 570.09 C 1207.93 570.58, 1206.58 570.68, 1203.77 570.64 C 1200.95 570.61, 1199.37 570.44, 1196.24 569.91 C 1193.10 569.37, 1191.38 568.95, 1188.08 567.98 C 1184.78 567.01, 1183.01 566.40, 1179.72 565.07 C 1176.43 563.74, 1174.70 562.96, 1171.63 561.33 C 1168.55 559.70, 1166.98 558.82, 1164.34 556.94 C 1161.70 555.05, 1160.44 553.99, 1158.43 551.90 C 1156.43 549.82, 1155.53 548.65, 1154.33 546.50 C 1153.12 544.34, 1152.72 543.30, 1152.42 541.12 C 1152.12 538.93, 1152.24 537.79, 1152.85 535.59 C 1153.46 533.39, 1154.00 532.24, 1155.47 530.13 C 1156.94 528.01, 1157.94 526.98, 1160.19 525.03 C 1162.45 523.09, 1163.82 522.11, 1166.72 520.41 C 1169.62 518.72, 1171.31 517.91, 1174.70 516.55 C 1178.08 515.19, 1179.98 514.59, 1183.64 513.61 C 1187.30 512.64, 1189.24 512.25, 1192.99 511.67 C 1196.74 511.09, 1198.70 510.94, 1202.37 510.73 C 1206.03 510.53, 1208.15 510.63, 1211.33 510.66 C 1214.51 510.70, 1216.01 510.84, 1218.28 510.92 C 1220.55 511.00, 1221.80 511.07, 1222.69 511.07 C 1223.57 511.07, 1223.57 511.02, 1222.70 510.92 C 1221.82 510.81, 1220.57 510.69, 1218.30 510.56 C 1216.03 510.42, 1214.53 510.28, 1211.33 510.24 C 1208.14 510.20, 1206.02 510.14, 1202.35 510.36 C 1198.67 510.57, 1196.70 510.73, 1192.94 511.31 C 1189.17 511.89, 1187.22 512.28, 1183.54 513.26 C 1179.87 514.23, 1177.96 514.83, 1174.55 516.19 C 1171.15 517.54, 1169.44 518.35, 1166.51 520.05 C 1163.58 521.75, 1162.18 522.72, 1159.89 524.68 C 1157.60 526.64, 1156.57 527.69, 1155.08 529.85 C 1153.58 532.01, 1153.04 533.21, 1152.42 535.47 C 1151.81 537.74, 1151.70 538.93, 1152.01 541.17 C 1152.31 543.42, 1152.73 544.50, 1153.95 546.71 C 1155.17 548.91, 1156.08 550.10, 1158.11 552.21 C 1160.15 554.32, 1161.44 555.38, 1164.11 557.27 C 1166.77 559.16, 1168.35 560.04, 1171.44 561.68 C 1174.54 563.31, 1176.27 564.10, 1179.58 565.44 C 1182.88 566.78, 1184.64 567.40, 1187.96 568.38 C 1191.28 569.36, 1193.00 569.80, 1196.16 570.35 C 1199.32 570.90, 1200.91 571.10, 1203.76 571.14 C 1206.61 571.18, 1207.98 571.07, 1210.41 570.55 C 1212.83 570.04, 1213.95 569.66, 1215.88 568.57 C 1217.81 567.48, 1218.65 566.74, 1220.07 565.09 C 1221.49 563.43, 1222.06 562.47, 1222.99 560.30 C 1223.91 558.14, 1224.24 556.90, 1224.69 554.26 C 1225.13 551.62, 1225.21 550.16, 1225.21 547.11 C 1225.21 544.07, 1225.07 542.40, 1224.68 539.03 C 1224.29 535.66, 1223.95 533.82, 1223.25 530.27 C 1222.55 526.73, 1222.09 524.88, 1221.18 521.30 C 1220.28 517.72, 1219.73 515.87, 1218.72 512.36 C 1217.71 508.86, 1217.13 507.10, 1216.15 503.76 C 1215.17 500.42, 1214.66 498.74, 1213.81 495.65 C 1212.96 492.56, 1212.54 491.09, 1211.89 488.32 C 1211.24 485.55, 1210.95 484.14, 1210.58 481.80 C 1210.21 479.46, 1210.13 478.27, 1210.03 476.61 C 1209.93 474.96, 1210.01 474.30, 1210.08 473.51 C 1210.16 472.72, 1210.27 472.51, 1210.41 472.68 C 1210.54 472.85, 1210.69 473.35, 1210.75 474.35 C 1210.80 475.36, 1210.93 476.33, 1210.67 477.71 C 1210.41 479.08, 1210.21 479.86, 1209.44 481.25 C 1208.67 482.64, 1208.14 483.40, 1206.82 484.64 C 1205.51 485.89, 1204.64 486.47, 1202.86 487.47 C 1201.08 488.47, 1200.02 488.99, 1197.92 489.66 C 1195.81 490.33, 1194.58 490.59, 1192.33 490.82 C 1190.08 491.06, 1188.86 491.08, 1186.68 490.82 C 1184.50 490.55, 1183.34 490.25, 1181.42 489.48 C 1179.51 488.71, 1178.54 488.15, 1177.11 486.96 C 1175.68 485.77, 1175.07 485.03, 1174.27 483.53 C 1173.47 482.03, 1173.21 481.13, 1173.10 479.45 C 1172.98 477.77, 1173.13 476.82, 1173.68 475.11 C 1174.23 473.40, 1174.73 472.46, 1175.85 470.88 C 1176.97 469.30, 1177.72 468.50, 1179.29 467.22 C 1180.85 465.93, 1181.82 465.35, 1183.68 464.45 C 1185.54 463.54, 1186.62 463.18, 1188.60 462.70 C 1190.58 462.21, 1191.64 462.09, 1193.59 462.03 C 1195.54 461.98, 1196.56 462.10, 1198.34 462.42 C 1200.13 462.74, 1201.03 463.00, 1202.51 463.63 C 1203.98 464.27, 1204.64 464.61, 1205.72 465.59 C 1206.80 466.56, 1207.22 467.33, 1207.91 468.49 C 1208.60 469.65, 1208.78 470.31, 1209.15 471.37 C 1209.51 472.43, 1209.57 473.31, 1209.72 473.78 C 1209.88 474.25, 1209.97 474.25, 1209.94 473.74" style="stroke: black; fill: black;"/><path d="M 1304.04,472.08 C 1304.08 471.94, 1304.02 471.71, 1303.98 471.46 C 1303.95 471.21, 1303.94 470.96, 1303.87 470.84 C 1303.79 470.71, 1303.69 470.70, 1303.62 470.84 C 1303.55 470.98, 1303.48 471.27, 1303.51 471.53 C 1303.55 471.79, 1303.71 472.04, 1303.81 472.15 C 1303.92 472.26, 1304.01 472.22, 1304.04 472.08" style="stroke: black; fill: black;"/><path d="M 1295.82,492.80 C 1296.16 492.99, 1296.87 493.24, 1297.60 493.49 C 1298.34 493.74, 1299.10 493.99, 1299.49 494.06 C 1299.89 494.13, 1299.93 494.04, 1299.58 493.83 C 1299.23 493.63, 1298.50 493.29, 1297.76 493.03 C 1297.02 492.78, 1296.28 492.62, 1295.89 492.58 C 1295.50 492.53, 1295.47 492.62, 1295.82 492.80" style="stroke: black; fill: black;"/><path d="M 1314.68,409.54 C 1315.02 409.65, 1315.50 409.56, 1316.39 409.89 C 1317.29 410.22, 1317.90 410.45, 1319.15 411.20 C 1320.41 411.95, 1321.22 412.36, 1322.66 413.65 C 1324.09 414.94, 1324.87 415.79, 1326.33 417.66 C 1327.80 419.52, 1328.60 420.61, 1329.98 422.98 C 1331.37 425.34, 1332.05 426.63, 1333.25 429.47 C 1334.46 432.31, 1335.04 433.89, 1335.98 437.17 C 1336.93 440.45, 1337.34 442.22, 1337.98 445.86 C 1338.61 449.50, 1338.86 451.43, 1339.14 455.37 C 1339.43 459.31, 1339.50 461.40, 1339.40 465.56 C 1339.31 469.72, 1339.14 471.88, 1338.67 476.16 C 1338.20 480.44, 1337.87 482.67, 1337.06 486.97 C 1336.26 491.26, 1335.76 493.49, 1334.65 497.66 C 1333.55 501.83, 1332.89 503.89, 1331.53 507.81 C 1330.18 511.73, 1329.36 513.66, 1327.89 517.26 C 1326.41 520.86, 1325.59 522.61, 1324.15 525.79 C 1322.71 528.96, 1321.94 530.54, 1320.68 533.14 C 1319.42 535.73, 1318.75 536.92, 1317.85 538.76 C 1316.95 540.59, 1316.47 541.59, 1316.16 542.32 C 1315.85 543.05, 1315.89 543.07, 1316.29 542.39 C 1316.70 541.71, 1317.21 540.73, 1318.17 538.92 C 1319.12 537.11, 1319.81 535.93, 1321.07 533.33 C 1322.34 530.74, 1323.07 529.13, 1324.49 525.94 C 1325.92 522.75, 1326.73 520.99, 1328.20 517.39 C 1329.67 513.78, 1330.49 511.84, 1331.84 507.91 C 1333.19 503.98, 1333.85 501.92, 1334.96 497.74 C 1336.06 493.56, 1336.57 491.33, 1337.37 487.02 C 1338.18 482.71, 1338.52 480.49, 1338.99 476.20 C 1339.46 471.91, 1339.64 469.74, 1339.74 465.57 C 1339.84 461.40, 1339.77 459.30, 1339.49 455.34 C 1339.21 451.39, 1338.97 449.46, 1338.35 445.80 C 1337.73 442.14, 1337.31 440.36, 1336.38 437.06 C 1335.45 433.76, 1334.87 432.16, 1333.68 429.30 C 1332.49 426.43, 1331.81 425.11, 1330.43 422.72 C 1329.04 420.32, 1328.24 419.22, 1326.75 417.33 C 1325.27 415.43, 1324.49 414.55, 1323.02 413.24 C 1321.56 411.92, 1320.73 411.49, 1319.43 410.74 C 1318.13 409.99, 1317.47 409.77, 1316.53 409.49 C 1315.58 409.21, 1315.07 409.34, 1314.70 409.35 C 1314.33 409.37, 1314.34 409.44, 1314.68 409.54" style="stroke: black; fill: black;"/></svg>