<svg xmlns="http://www.w3.org/2000/svg" id="canvas" viewBox="412.366 338.697 883.291 168.777"><path d="M 415.52,362.01 C 415.42 362.76, 415.40 363.70, 415.39 365.76 C 415.38 367.81, 415.31 369.19, 415.47 372.28 C 415.63 375.37, 415.82 377.33, 416.18 381.23 C 416.55 385.13, 416.78 387.28, 417.29 391.79 C 417.80 396.29, 418.06 398.71, 418.72 403.76 C 419.38 408.81, 419.74 411.58, 420.60 417.02 C 421.46 422.46, 421.93 425.37, 423.03 430.96 C 424.13 436.56, 424.75 439.47, 426.12 445.00 C 427.49 450.53, 428.31 453.36, 429.88 458.63 C 431.46 463.89, 432.30 466.54, 434.00 471.32 C 435.70 476.09, 436.62 478.43, 438.37 482.50 C 440.12 486.56, 441.05 488.51, 442.76 491.64 C 444.47 494.77, 445.27 496.20, 446.91 498.16 C 448.55 500.13, 449.40 500.82, 450.98 501.45 C 452.57 502.09, 453.36 502.10, 454.84 501.33 C 456.33 500.55, 457.06 499.78, 458.42 497.60 C 459.77 495.41, 460.37 493.78, 461.60 490.39 C 462.84 487.00, 463.40 484.86, 464.59 480.64 C 465.78 476.41, 466.39 474.02, 467.57 469.27 C 468.76 464.53, 469.39 461.91, 470.50 456.90 C 471.62 451.90, 472.15 449.25, 473.14 444.25 C 474.13 439.25, 474.63 436.68, 475.46 431.90 C 476.28 427.11, 476.62 424.67, 477.26 420.33 C 477.91 416.00, 478.19 413.48, 478.68 410.23 C 479.16 406.97, 479.31 405.45, 479.68 404.07 C 480.06 402.69, 480.11 402.51, 480.54 403.30 C 480.98 404.10, 481.10 405.23, 481.86 408.03 C 482.61 410.82, 483.13 413.00, 484.31 417.27 C 485.49 421.53, 486.20 424.32, 487.75 429.34 C 489.31 434.36, 490.15 437.16, 492.08 442.36 C 494.01 447.56, 495.05 450.25, 497.40 455.33 C 499.74 460.41, 501.09 463.04, 503.81 467.76 C 506.53 472.47, 508.02 474.84, 511.01 478.91 C 514.01 482.97, 515.59 484.92, 518.79 488.09 C 521.99 491.26, 523.72 492.68, 527.00 494.76 C 530.29 496.83, 531.98 497.60, 535.23 498.46 C 538.48 499.32, 540.13 499.43, 543.26 499.05 C 546.38 498.67, 547.96 498.18, 550.84 496.56 C 553.73 494.93, 555.09 493.80, 557.66 490.94 C 560.23 488.08, 561.47 486.28, 563.68 482.25 C 565.89 478.22, 566.89 475.81, 568.70 470.79 C 570.51 465.78, 571.36 462.94, 572.73 457.19 C 574.11 451.44, 574.73 448.29, 575.58 442.05 C 576.44 435.82, 576.71 432.49, 577.02 426.03 C 577.34 419.57, 577.37 416.19, 577.14 409.75 C 576.92 403.31, 576.62 400.02, 575.89 393.82 C 575.16 387.61, 574.61 384.49, 573.50 378.72 C 572.39 372.95, 571.72 370.12, 570.34 364.96 C 568.97 359.81, 568.16 357.33, 566.64 352.96 C 565.13 348.59, 563.61 345.05, 562.77 343.11 C 561.93 341.17, 561.75 341.24, 562.43 343.24 C 563.12 345.24, 564.71 348.74, 566.21 353.11 C 567.71 357.47, 568.55 359.94, 569.92 365.08 C 571.30 370.21, 571.99 373.04, 573.10 378.80 C 574.22 384.55, 574.78 387.67, 575.51 393.86 C 576.24 400.06, 576.54 403.34, 576.76 409.76 C 576.99 416.19, 576.96 419.56, 576.64 426.01 C 576.33 432.45, 576.05 435.78, 575.19 442.00 C 574.32 448.21, 573.70 451.36, 572.31 457.09 C 570.92 462.82, 570.07 465.65, 568.24 470.63 C 566.42 475.61, 565.41 478.01, 563.20 481.99 C 560.99 485.96, 559.73 487.73, 557.20 490.52 C 554.66 493.32, 553.32 494.39, 550.51 495.96 C 547.71 497.53, 546.20 498.00, 543.17 498.38 C 540.15 498.76, 538.56 498.67, 535.39 497.85 C 532.21 497.03, 530.55 496.30, 527.30 494.28 C 524.06 492.25, 522.33 490.86, 519.15 487.73 C 515.96 484.59, 514.38 482.67, 511.39 478.63 C 508.40 474.59, 506.91 472.23, 504.20 467.54 C 501.48 462.84, 500.13 460.21, 497.80 455.15 C 495.47 450.08, 494.43 447.39, 492.52 442.20 C 490.62 437.01, 489.78 434.21, 488.27 429.18 C 486.77 424.16, 486.11 421.36, 484.99 417.08 C 483.87 412.81, 483.52 410.58, 482.68 407.79 C 481.84 405.00, 481.48 403.89, 480.80 403.12 C 480.11 402.35, 479.82 402.53, 479.25 403.93 C 478.69 405.33, 478.49 406.85, 477.98 410.12 C 477.47 413.38, 477.31 415.92, 476.71 420.25 C 476.11 424.59, 475.78 427.03, 474.97 431.81 C 474.16 436.59, 473.66 439.16, 472.67 444.15 C 471.68 449.15, 471.14 451.80, 470.02 456.80 C 468.90 461.79, 468.26 464.41, 467.05 469.14 C 465.85 473.88, 465.22 476.27, 463.99 480.46 C 462.75 484.66, 462.13 486.78, 460.87 490.12 C 459.62 493.46, 458.95 495.02, 457.69 497.16 C 456.43 499.30, 455.86 500.06, 454.56 500.82 C 453.26 501.57, 452.62 501.56, 451.19 500.94 C 449.77 500.32, 449.03 499.64, 447.45 497.72 C 445.87 495.80, 445.02 494.43, 443.30 491.34 C 441.58 488.26, 440.62 486.32, 438.85 482.29 C 437.08 478.25, 436.15 475.92, 434.44 471.16 C 432.73 466.40, 431.88 463.75, 430.30 458.50 C 428.72 453.25, 427.90 450.42, 426.53 444.90 C 425.17 439.37, 424.56 436.47, 423.46 430.88 C 422.37 425.29, 421.91 422.39, 421.06 416.95 C 420.21 411.51, 419.86 408.74, 419.22 403.69 C 418.58 398.65, 418.33 396.23, 417.86 391.73 C 417.40 387.22, 417.19 385.07, 416.89 381.17 C 416.59 377.27, 416.50 375.32, 416.35 372.24 C 416.20 369.15, 416.25 367.79, 416.15 365.74 C 416.05 363.69, 415.98 362.75, 415.86 362.00 C 415.73 361.25, 415.61 361.25, 415.52 362.01" style="stroke: black; fill: black;"/><path d="M 609.53,450.85 C 610.27 450.65, 611.22 450.27, 613.05 449.51 C 614.87 448.76, 616.02 448.29, 618.66 447.08 C 621.29 445.88, 623.06 445.10, 626.23 443.48 C 629.40 441.85, 631.22 440.83, 634.51 438.95 C 637.79 437.06, 639.54 436.04, 642.65 434.06 C 645.76 432.08, 647.40 431.06, 650.06 429.04 C 652.72 427.02, 654.03 426.00, 655.95 423.95 C 657.87 421.90, 658.73 420.80, 659.67 418.79 C 660.61 416.79, 660.85 415.76, 660.66 413.92 C 660.46 412.08, 660.04 411.08, 658.68 409.58 C 657.32 408.08, 656.29 407.33, 653.86 406.42 C 651.44 405.51, 649.87 405.19, 646.54 405.02 C 643.22 404.86, 641.23 404.92, 637.25 405.61 C 633.27 406.30, 630.97 406.88, 626.63 408.47 C 622.30 410.05, 619.91 411.13, 615.59 413.53 C 611.26 415.94, 608.94 417.41, 604.99 420.49 C 601.04 423.58, 599.01 425.37, 595.83 428.97 C 592.64 432.58, 591.16 434.57, 589.06 438.53 C 586.96 442.49, 586.09 444.65, 585.33 448.78 C 584.58 452.90, 584.51 455.12, 585.28 459.16 C 586.05 463.19, 586.82 465.26, 589.17 468.94 C 591.52 472.61, 593.13 474.40, 597.02 477.52 C 600.91 480.63, 603.38 482.15, 608.61 484.50 C 613.83 486.85, 616.90 487.83, 623.15 489.27 C 629.41 490.71, 632.99 491.21, 639.87 491.71 C 646.76 492.21, 650.55 492.19, 657.58 491.75 C 664.60 491.31, 668.26 490.78, 674.98 489.49 C 681.69 488.20, 685.10 487.34, 691.15 485.28 C 697.20 483.23, 700.10 481.94, 705.21 479.22 C 710.33 476.49, 712.69 474.94, 716.73 471.65 C 720.77 468.36, 722.50 466.56, 725.41 462.76 C 728.33 458.96, 729.44 456.78, 731.31 452.64 C 733.18 448.49, 733.84 446.34, 734.77 442.03 C 735.69 437.71, 735.79 435.45, 735.93 431.05 C 736.07 426.65, 735.85 424.27, 735.44 420.03 C 735.03 415.79, 734.64 413.73, 733.88 409.86 C 733.13 405.99, 732.57 404.07, 731.66 400.69 C 730.76 397.30, 730.27 395.62, 729.36 392.91 C 728.45 390.21, 727.99 389.06, 727.12 387.18 C 726.25 385.30, 725.84 384.49, 725.01 383.52 C 724.18 382.54, 723.70 381.99, 722.97 382.29 C 722.24 382.59, 721.88 383.16, 721.36 385.00 C 720.83 386.84, 720.60 388.35, 720.34 391.49 C 720.08 394.63, 720.04 396.56, 720.05 400.73 C 720.06 404.90, 720.14 407.46, 720.41 412.34 C 720.67 417.22, 720.84 419.91, 721.39 425.14 C 721.93 430.37, 722.25 433.13, 723.14 438.47 C 724.02 443.80, 724.54 446.61, 725.82 451.81 C 727.11 457.01, 727.87 459.64, 729.56 464.47 C 731.25 469.30, 732.20 471.72, 734.28 475.96 C 736.35 480.20, 737.49 482.21, 739.95 485.67 C 742.41 489.14, 743.77 490.74, 746.58 493.29 C 749.39 495.83, 751.19 496.86, 754.00 498.40 C 756.80 499.94, 758.40 500.35, 760.61 500.99 C 762.83 501.62, 764.17 501.51, 765.06 501.58 C 765.96 501.64, 765.97 501.54, 765.11 501.30 C 764.26 501.06, 762.96 501.08, 760.80 500.38 C 758.65 499.67, 757.10 499.28, 754.34 497.77 C 751.58 496.27, 749.78 495.32, 746.98 492.84 C 744.19 490.36, 742.84 488.78, 740.38 485.36 C 737.93 481.94, 736.80 479.96, 734.72 475.75 C 732.64 471.54, 731.69 469.12, 730.00 464.31 C 728.31 459.50, 727.55 456.88, 726.27 451.70 C 724.99 446.52, 724.47 443.71, 723.59 438.39 C 722.71 433.07, 722.40 430.31, 721.88 425.09 C 721.35 419.87, 721.19 417.18, 720.96 412.31 C 720.74 407.44, 720.68 404.88, 720.74 400.73 C 720.80 396.58, 720.98 394.68, 721.26 391.57 C 721.54 388.46, 721.76 386.99, 722.13 385.19 C 722.50 383.40, 722.62 382.85, 723.11 382.59 C 723.59 382.32, 723.90 382.88, 724.57 383.86 C 725.24 384.83, 725.64 385.61, 726.45 387.48 C 727.26 389.34, 727.70 390.49, 728.62 393.17 C 729.53 395.84, 730.08 397.50, 731.02 400.86 C 731.96 404.22, 732.52 406.13, 733.30 409.97 C 734.07 413.82, 734.46 415.87, 734.88 420.09 C 735.30 424.30, 735.51 426.67, 735.39 431.03 C 735.26 435.40, 735.16 437.64, 734.26 441.92 C 733.35 446.20, 732.70 448.32, 730.85 452.43 C 729.01 456.55, 727.92 458.70, 725.04 462.48 C 722.16 466.26, 720.46 468.05, 716.46 471.32 C 712.46 474.60, 710.11 476.15, 705.03 478.87 C 699.94 481.59, 697.05 482.88, 691.03 484.93 C 685.01 486.99, 681.61 487.85, 674.91 489.14 C 668.22 490.43, 664.56 490.96, 657.55 491.40 C 650.55 491.84, 646.76 491.84, 639.90 491.34 C 633.04 490.84, 629.47 490.33, 623.24 488.88 C 617.02 487.43, 613.97 486.45, 608.79 484.10 C 603.60 481.75, 601.16 480.22, 597.32 477.13 C 593.49 474.05, 591.91 472.27, 589.61 468.65 C 587.31 465.04, 586.56 463.01, 585.81 459.05 C 585.06 455.10, 585.12 452.93, 585.86 448.87 C 586.60 444.82, 587.45 442.69, 589.52 438.78 C 591.59 434.86, 593.05 432.88, 596.20 429.31 C 599.36 425.73, 601.37 423.95, 605.30 420.89 C 609.22 417.82, 611.53 416.37, 615.84 413.99 C 620.14 411.61, 622.52 410.55, 626.83 409.00 C 631.13 407.46, 633.43 406.90, 637.36 406.26 C 641.30 405.62, 643.26 405.62, 646.50 405.81 C 649.74 406.01, 651.24 406.37, 653.57 407.22 C 655.90 408.07, 656.86 408.72, 658.15 410.07 C 659.44 411.42, 659.83 412.30, 660.01 413.99 C 660.18 415.67, 659.95 416.60, 659.02 418.48 C 658.10 420.37, 657.25 421.41, 655.37 423.40 C 653.49 425.40, 652.24 426.46, 649.63 428.47 C 647.01 430.49, 645.38 431.51, 642.29 433.48 C 639.19 435.46, 637.44 436.48, 634.16 438.34 C 630.87 440.19, 629.05 441.18, 625.87 442.76 C 622.69 444.34, 620.89 445.01, 618.26 446.22 C 615.63 447.43, 614.51 447.95, 612.74 448.82 C 610.96 449.68, 610.03 450.12, 609.39 450.53 C 608.75 450.94, 608.80 451.05, 609.53 450.85" style="stroke: black; fill: black;"/><path d="M 835.95,426.05 C 835.41 425.57, 834.57 424.77, 833.06 423.95 C 831.55 423.13, 830.61 422.52, 828.38 421.95 C 826.16 421.38, 824.71 421.03, 821.95 421.09 C 819.18 421.16, 817.72 421.50, 814.57 422.27 C 811.42 423.05, 809.66 423.61, 806.18 424.97 C 802.70 426.34, 800.71 427.17, 797.18 429.11 C 793.65 431.05, 791.83 432.20, 788.53 434.66 C 785.23 437.12, 783.52 438.54, 780.68 441.41 C 777.85 444.28, 776.44 445.84, 774.35 449.02 C 772.27 452.21, 771.35 453.95, 770.27 457.32 C 769.19 460.70, 768.83 462.51, 768.95 465.90 C 769.08 469.28, 769.42 471.06, 770.89 474.26 C 772.35 477.45, 773.44 479.05, 776.27 481.86 C 779.11 484.67, 780.91 486.03, 785.07 488.30 C 789.23 490.56, 791.74 491.61, 797.07 493.19 C 802.40 494.77, 805.49 495.35, 811.71 496.19 C 817.93 497.03, 821.94 497.17, 828.18 497.39 C 834.42 497.62, 838.01 497.47, 842.91 497.31 C 847.80 497.14, 850.73 496.79, 852.68 496.58 C 854.63 496.37, 854.61 496.22, 852.66 496.28 C 850.70 496.34, 847.78 496.74, 842.89 496.88 C 838.00 497.02, 834.42 497.18, 828.20 496.96 C 821.97 496.74, 817.96 496.61, 811.77 495.77 C 805.57 494.93, 802.49 494.33, 797.20 492.75 C 791.91 491.16, 789.43 490.10, 785.33 487.83 C 781.22 485.57, 779.46 484.21, 776.69 481.44 C 773.92 478.67, 772.89 477.10, 771.47 473.99 C 770.06 470.88, 769.73 469.17, 769.61 465.87 C 769.49 462.58, 769.83 460.82, 770.88 457.52 C 771.93 454.22, 772.82 452.50, 774.87 449.36 C 776.92 446.23, 778.31 444.68, 781.11 441.83 C 783.92 438.99, 785.62 437.58, 788.90 435.15 C 792.17 432.72, 793.98 431.58, 797.49 429.67 C 801.00 427.77, 802.98 426.95, 806.44 425.63 C 809.89 424.30, 811.65 423.77, 814.76 423.05 C 817.86 422.33, 819.28 422.07, 821.96 422.03 C 824.64 421.99, 826.01 422.33, 828.16 422.85 C 830.31 423.38, 831.19 423.94, 832.71 424.65 C 834.22 425.35, 835.09 426.09, 835.74 426.37 C 836.39 426.65, 836.48 426.54, 835.95 426.05" style="stroke: black; fill: black;"/><path d="M 926.96,438.47 C 926.47 437.75, 925.71 436.54, 924.25 435.13 C 922.78 433.73, 921.88 432.75, 919.64 431.45 C 917.41 430.14, 915.94 429.32, 913.05 428.61 C 910.15 427.91, 908.56 427.85, 905.17 427.94 C 901.79 428.03, 899.86 428.28, 896.12 429.07 C 892.38 429.85, 890.34 430.40, 886.49 431.86 C 882.64 433.32, 880.53 434.26, 876.86 436.37 C 873.19 438.47, 871.30 439.73, 868.14 442.40 C 864.98 445.07, 863.42 446.58, 861.06 449.70 C 858.70 452.81, 857.61 454.59, 856.33 457.98 C 855.06 461.38, 854.66 463.25, 854.68 466.67 C 854.71 470.10, 855.02 471.93, 856.45 475.11 C 857.88 478.29, 858.98 479.93, 861.83 482.58 C 864.67 485.23, 866.55 486.47, 870.69 488.36 C 874.82 490.26, 877.42 491.02, 882.49 492.03 C 887.57 493.03, 890.50 493.31, 896.05 493.38 C 901.60 493.46, 904.68 493.20, 910.24 492.40 C 915.81 491.60, 918.80 490.92, 923.88 489.37 C 928.96 487.83, 931.43 486.84, 935.65 484.67 C 939.87 482.51, 941.90 481.22, 944.97 478.54 C 948.05 475.86, 949.30 474.32, 951.04 471.29 C 952.78 468.26, 953.28 466.59, 953.68 463.39 C 954.07 460.19, 953.88 458.42, 953.03 455.29 C 952.18 452.16, 951.30 450.59, 949.42 447.75 C 947.53 444.91, 946.18 443.50, 943.61 441.09 C 941.04 438.67, 939.40 437.52, 936.57 435.69 C 933.74 433.86, 931.90 433.09, 929.45 431.95 C 927.00 430.81, 925.93 430.52, 924.31 429.98 C 922.68 429.45, 921.93 429.36, 921.32 429.26 C 920.71 429.16, 920.70 429.23, 921.25 429.48 C 921.81 429.74, 922.54 429.88, 924.11 430.52 C 925.67 431.17, 926.68 431.55, 929.09 432.71 C 931.50 433.87, 933.36 434.55, 936.16 436.33 C 938.97 438.11, 940.59 439.24, 943.12 441.61 C 945.65 443.97, 946.98 445.37, 948.83 448.14 C 950.67 450.91, 951.52 452.44, 952.36 455.48 C 953.20 458.51, 953.38 460.20, 953.02 463.31 C 952.65 466.41, 952.19 468.02, 950.52 470.99 C 948.84 473.95, 947.64 475.49, 944.62 478.14 C 941.60 480.79, 939.60 482.08, 935.42 484.24 C 931.25 486.40, 928.80 487.39, 923.75 488.94 C 918.70 490.48, 915.72 491.16, 910.18 491.96 C 904.64 492.75, 901.58 493.00, 896.06 492.92 C 890.54 492.84, 887.62 492.55, 882.59 491.54 C 877.56 490.53, 874.99 489.74, 870.92 487.86 C 866.85 485.98, 865.02 484.74, 862.24 482.13 C 859.47 479.53, 858.42 477.94, 857.04 474.84 C 855.66 471.75, 855.36 470.00, 855.33 466.67 C 855.31 463.34, 855.68 461.52, 856.92 458.20 C 858.16 454.88, 859.22 453.13, 861.54 450.06 C 863.86 446.99, 865.39 445.49, 868.52 442.85 C 871.64 440.21, 873.52 438.96, 877.16 436.88 C 880.80 434.80, 882.89 433.87, 886.71 432.44 C 890.53 431.01, 892.56 430.47, 896.25 429.72 C 899.95 428.98, 901.87 428.74, 905.19 428.69 C 908.50 428.64, 910.04 428.75, 912.84 429.47 C 915.63 430.18, 917.00 431.00, 919.18 432.25 C 921.35 433.51, 922.21 434.43, 923.71 435.72 C 925.21 437.02, 926.03 438.18, 926.68 438.73 C 927.33 439.27, 927.45 439.19, 926.96 438.47" style="stroke: black; fill: black;"/><path d="M 978.07,431.58 C 977.95 432.14, 977.85 432.79, 977.81 434.39 C 977.77 435.99, 977.76 437.07, 977.87 439.58 C 977.97 442.10, 978.12 443.82, 978.33 446.96 C 978.54 450.11, 978.66 451.87, 978.90 455.30 C 979.14 458.72, 979.27 460.60, 979.52 464.09 C 979.77 467.57, 979.93 469.47, 980.15 472.73 C 980.38 475.99, 980.44 477.73, 980.66 480.39 C 980.87 483.05, 981.03 484.38, 981.23 486.05 C 981.43 487.72, 981.54 488.39, 981.65 488.74 C 981.76 489.09, 981.77 488.91, 981.78 487.82 C 981.79 486.72, 981.79 485.64, 981.70 483.27 C 981.61 480.90, 981.42 479.16, 981.33 475.96 C 981.24 472.76, 981.15 470.80, 981.25 467.26 C 981.35 463.72, 981.40 461.82, 981.83 458.26 C 982.27 454.70, 982.52 452.88, 983.43 449.46 C 984.33 446.03, 984.95 444.28, 986.36 441.14 C 987.77 438.01, 988.52 436.48, 990.48 433.79 C 992.44 431.10, 993.67 429.79, 996.16 427.69 C 998.66 425.59, 1000.07 424.62, 1002.97 423.30 C 1005.87 421.97, 1007.51 421.48, 1010.65 421.05 C 1013.80 420.62, 1015.51 420.57, 1018.69 421.15 C 1021.86 421.72, 1023.53 422.29, 1026.54 423.91 C 1029.55 425.53, 1031.09 426.64, 1033.74 429.24 C 1036.38 431.84, 1037.67 433.49, 1039.76 436.91 C 1041.85 440.33, 1042.76 442.38, 1044.21 446.32 C 1045.65 450.26, 1046.15 452.50, 1046.96 456.61 C 1047.78 460.73, 1047.95 463.00, 1048.27 466.89 C 1048.59 470.78, 1048.53 472.85, 1048.56 476.05 C 1048.60 479.25, 1048.46 480.83, 1048.45 482.90 C 1048.43 484.98, 1048.41 485.80, 1048.49 486.41 C 1048.57 487.03, 1048.64 486.92, 1048.84 485.97 C 1049.04 485.03, 1049.16 484.01, 1049.48 481.70 C 1049.79 479.39, 1049.89 477.67, 1050.40 474.43 C 1050.91 471.20, 1051.15 469.17, 1052.02 465.53 C 1052.89 461.89, 1053.39 459.92, 1054.75 456.25 C 1056.12 452.58, 1056.96 450.66, 1058.85 447.17 C 1060.73 443.68, 1061.85 441.89, 1064.20 438.80 C 1066.55 435.71, 1067.91 434.20, 1070.62 431.71 C 1073.32 429.23, 1074.80 428.07, 1077.72 426.37 C 1080.64 424.66, 1082.21 423.95, 1085.21 423.18 C 1088.21 422.41, 1089.80 422.25, 1092.71 422.51 C 1095.62 422.77, 1097.06 423.17, 1099.78 424.49 C 1102.50 425.81, 1103.87 426.78, 1106.31 429.10 C 1108.74 431.43, 1109.91 432.92, 1111.96 436.12 C 1114.01 439.32, 1114.90 441.26, 1116.56 445.10 C 1118.22 448.94, 1118.91 451.17, 1120.25 455.32 C 1121.60 459.47, 1122.09 461.71, 1123.27 465.86 C 1124.46 470.01, 1124.97 472.19, 1126.20 476.07 C 1127.43 479.95, 1128.03 481.92, 1129.43 485.26 C 1130.84 488.60, 1131.69 490.28, 1133.22 492.78 C 1134.75 495.29, 1135.81 496.31, 1137.08 497.79 C 1138.36 499.27, 1139.06 499.74, 1139.60 500.19 C 1140.14 500.63, 1140.19 500.57, 1139.78 500.02 C 1139.36 499.46, 1138.72 498.94, 1137.54 497.41 C 1136.37 495.88, 1135.39 494.86, 1133.89 492.38 C 1132.38 489.90, 1131.45 488.30, 1130.03 485.01 C 1128.60 481.71, 1128.00 479.75, 1126.76 475.89 C 1125.52 472.03, 1125.01 469.85, 1123.82 465.70 C 1122.63 461.55, 1122.14 459.31, 1120.80 455.14 C 1119.46 450.98, 1118.78 448.74, 1117.12 444.87 C 1115.46 440.99, 1114.57 439.03, 1112.51 435.77 C 1110.45 432.52, 1109.28 430.98, 1106.79 428.60 C 1104.31 426.21, 1102.90 425.19, 1100.10 423.83 C 1097.30 422.46, 1095.79 422.04, 1092.77 421.77 C 1089.76 421.51, 1088.11 421.69, 1085.04 422.50 C 1081.96 423.30, 1080.35 424.04, 1077.38 425.79 C 1074.41 427.54, 1072.92 428.72, 1070.19 431.25 C 1067.45 433.77, 1066.09 435.30, 1063.71 438.43 C 1061.33 441.55, 1060.22 443.36, 1058.30 446.88 C 1056.39 450.40, 1055.55 452.33, 1054.15 456.02 C 1052.75 459.72, 1052.24 461.70, 1051.30 465.35 C 1050.36 469.00, 1050.01 471.03, 1049.45 474.28 C 1048.88 477.52, 1048.69 479.25, 1048.48 481.59 C 1048.27 483.92, 1048.33 484.97, 1048.39 485.94 C 1048.44 486.91, 1048.60 487.03, 1048.75 486.43 C 1048.91 485.83, 1049.06 485.00, 1049.17 482.93 C 1049.28 480.85, 1049.35 479.26, 1049.30 476.04 C 1049.24 472.82, 1049.25 470.75, 1048.89 466.84 C 1048.54 462.93, 1048.37 460.64, 1047.54 456.50 C 1046.71 452.35, 1046.21 450.10, 1044.76 446.12 C 1043.31 442.14, 1042.40 440.06, 1040.28 436.59 C 1038.17 433.12, 1036.88 431.44, 1034.19 428.78 C 1031.51 426.12, 1029.94 424.98, 1026.86 423.31 C 1023.78 421.64, 1022.08 421.04, 1018.81 420.45 C 1015.55 419.85, 1013.78 419.89, 1010.55 420.33 C 1007.33 420.77, 1005.64 421.28, 1002.67 422.64 C 999.70 424.00, 998.26 425.00, 995.71 427.14 C 993.16 429.29, 991.92 430.64, 989.92 433.38 C 987.93 436.13, 987.17 437.68, 985.74 440.86 C 984.31 444.05, 983.70 445.82, 982.78 449.29 C 981.86 452.75, 981.61 454.59, 981.15 458.18 C 980.69 461.77, 980.64 463.67, 980.48 467.23 C 980.32 470.79, 980.32 472.76, 980.36 475.98 C 980.40 479.20, 980.48 480.95, 980.66 483.33 C 980.83 485.71, 981.00 486.79, 981.23 487.87 C 981.47 488.96, 981.69 489.12, 981.83 488.75 C 981.97 488.37, 981.99 487.68, 981.92 485.99 C 981.86 484.31, 981.70 482.99, 981.50 480.32 C 981.30 477.66, 981.16 475.94, 980.91 472.68 C 980.66 469.42, 980.49 467.52, 980.24 464.04 C 980.00 460.55, 979.88 458.67, 979.68 455.25 C 979.48 451.82, 979.40 450.05, 979.24 446.91 C 979.08 443.77, 979.01 442.04, 978.87 439.53 C 978.74 437.03, 978.65 435.97, 978.56 434.38 C 978.46 432.79, 978.50 432.15, 978.40 431.59 C 978.30 431.03, 978.18 431.02, 978.07 431.58" style="stroke: black; fill: black;"/><path d="M 1160.12,475.23 C 1160.82 474.75, 1161.64 473.88, 1163.39 472.56 C 1165.13 471.24, 1166.30 470.44, 1168.83 468.62 C 1171.36 466.81, 1173.04 465.58, 1176.04 463.50 C 1179.04 461.42, 1180.72 460.41, 1183.82 458.22 C 1186.93 456.03, 1188.62 454.84, 1191.56 452.54 C 1194.50 450.25, 1196.07 449.03, 1198.53 446.74 C 1200.99 444.46, 1202.16 443.31, 1203.87 441.12 C 1205.59 438.92, 1206.33 437.82, 1207.11 435.77 C 1207.88 433.72, 1208.09 432.64, 1207.76 430.85 C 1207.42 429.07, 1206.93 428.15, 1205.42 426.84 C 1203.91 425.53, 1202.80 424.92, 1200.22 424.31 C 1197.65 423.70, 1195.99 423.57, 1192.55 423.78 C 1189.11 424.00, 1187.05 424.33, 1183.02 425.38 C 1178.99 426.43, 1176.66 427.18, 1172.40 429.03 C 1168.13 430.88, 1165.75 432.08, 1161.70 434.64 C 1157.66 437.21, 1155.55 438.71, 1152.16 441.85 C 1148.77 444.99, 1147.08 446.83, 1144.76 450.35 C 1142.43 453.87, 1141.45 455.77, 1140.55 459.45 C 1139.64 463.13, 1139.46 465.08, 1140.24 468.75 C 1141.01 472.42, 1141.84 474.36, 1144.42 477.81 C 1147.00 481.26, 1148.82 482.99, 1153.14 485.99 C 1157.46 489.00, 1160.18 490.40, 1166.02 492.84 C 1171.86 495.28, 1175.32 496.41, 1182.33 498.19 C 1189.33 499.97, 1193.37 500.63, 1201.06 501.74 C 1208.75 502.85, 1212.95 503.20, 1220.79 503.74 C 1228.62 504.29, 1232.75 504.39, 1240.22 504.46 C 1247.69 504.52, 1251.49 504.38, 1258.13 504.06 C 1264.76 503.75, 1268.23 503.39, 1273.41 502.86 C 1278.59 502.34, 1280.74 502.02, 1284.04 501.45 C 1287.34 500.87, 1288.24 500.55, 1289.93 499.97 C 1291.61 499.40, 1291.97 499.04, 1292.46 498.56 C 1292.94 498.07, 1292.40 497.74, 1292.35 497.54 C 1292.31 497.34, 1292.25 497.39, 1292.24 497.55 C 1292.22 497.72, 1292.77 497.97, 1292.28 498.35 C 1291.78 498.74, 1291.43 498.97, 1289.76 499.47 C 1288.10 499.98, 1287.22 500.30, 1283.94 500.89 C 1280.66 501.48, 1278.53 501.87, 1273.37 502.44 C 1268.20 503.00, 1264.74 503.37, 1258.11 503.71 C 1251.48 504.04, 1247.68 504.19, 1240.22 504.13 C 1232.76 504.08, 1228.63 503.97, 1220.81 503.42 C 1212.99 502.88, 1208.79 502.53, 1201.11 501.42 C 1193.43 500.30, 1189.40 499.63, 1182.42 497.84 C 1175.43 496.05, 1171.98 494.91, 1166.18 492.46 C 1160.38 490.01, 1157.68 488.60, 1153.41 485.60 C 1149.15 482.61, 1147.37 480.88, 1144.85 477.49 C 1142.33 474.09, 1141.55 472.21, 1140.80 468.63 C 1140.05 465.05, 1140.22 463.18, 1141.10 459.59 C 1141.98 455.99, 1142.93 454.13, 1145.21 450.65 C 1147.50 447.18, 1149.17 445.35, 1152.52 442.24 C 1155.88 439.12, 1157.97 437.63, 1161.99 435.09 C 1166.01 432.56, 1168.38 431.37, 1172.62 429.55 C 1176.86 427.73, 1179.19 427.00, 1183.18 426.00 C 1187.17 425.01, 1189.22 424.73, 1192.59 424.56 C 1195.96 424.39, 1197.55 424.59, 1200.03 425.15 C 1202.50 425.72, 1203.54 426.22, 1204.96 427.38 C 1206.38 428.55, 1206.82 429.35, 1207.12 430.97 C 1207.42 432.60, 1207.22 433.58, 1206.44 435.51 C 1205.67 437.45, 1204.93 438.49, 1203.25 440.63 C 1201.57 442.78, 1200.46 443.95, 1198.04 446.22 C 1195.62 448.50, 1194.07 449.73, 1191.15 452.02 C 1188.23 454.30, 1186.54 455.49, 1183.43 457.66 C 1180.32 459.83, 1178.63 460.82, 1175.61 462.86 C 1172.58 464.91, 1170.85 466.08, 1168.31 467.90 C 1165.77 469.72, 1164.59 470.54, 1162.90 471.95 C 1161.22 473.36, 1160.43 474.31, 1159.88 474.96 C 1159.32 475.62, 1159.41 475.71, 1160.12 475.23" style="stroke: black; fill: black;"/></svg>