<?xml version="1.0" standalone="no"?>
<!DOCTYPE svg PUBLIC "-//W3C//DTD SVG 20010904//EN"
 "http://www.w3.org/TR/2001/REC-SVG-20010904/DTD/svg10.dtd">
<svg version="1.0" xmlns="http://www.w3.org/2000/svg"
 width="1080.000000pt" height="1080.000000pt" viewBox="0 0 1080.000000 1080.000000"
 preserveAspectRatio="xMidYMid meet">
<metadata>
Created by potrace 1.14, written by Peter Selinger 2001-2017
</metadata>
<g transform="translate(0.000000,1080.000000) scale(0.100000,-0.100000)"
fill="#000000" stroke="none">
<path d="M3689 10796 c-2 -2 -46 -7 -96 -10 -51 -4 -103 -9 -115 -11 -13 -2
-43 -6 -68 -9 -25 -4 -56 -8 -70 -10 -14 -3 -45 -7 -70 -10 -210 -27 -550
-119 -782 -212 -299 -119 -511 -230 -758 -396 -571 -384 -1020 -894 -1317
-1498 -169 -343 -260 -607 -339 -985 -21 -102 -51 -315 -62 -450 -9 -116 -9
-3503 0 -3615 8 -92 34 -299 43 -340 3 -14 10 -47 15 -75 23 -129 88 -391 109
-440 4 -11 16 -45 26 -75 136 -429 399 -898 719 -1280 82 -98 318 -337 421
-426 469 -406 1046 -702 1645 -845 128 -30 372 -73 470 -83 30 -3 91 -9 135
-13 100 -10 3489 -11 3605 -1 47 4 99 10 115 12 17 2 57 7 90 10 33 4 96 13
140 21 44 8 96 17 115 20 141 23 473 122 670 198 144 56 392 173 480 227 309
187 466 298 653 461 95 84 318 307 387 389 30 36 57 67 60 70 3 3 35 43 70 90
36 47 68 89 73 95 71 92 229 350 311 508 169 324 299 699 367 1062 5 28 11 61
14 75 9 46 35 250 42 338 10 111 10 3484 1 3612 -27 362 -118 760 -251 1105
-424 1093 -1309 1933 -2427 2302 -149 49 -393 109 -545 133 -71 12 -140 23
-152 25 -12 2 -57 7 -100 10 -43 4 -87 10 -98 13 -21 7 -3519 14 -3526 8z"/>
</g>
</svg>
